<?xml version="1.0" encoding="utf-8"?>
<!-- Generator: Adobe Illustrator 16.0.0, SVG Export Plug-In . SVG Version: 6.00 Build 0)  -->
<!DOCTYPE svg PUBLIC "-//W3C//DTD SVG 1.1//EN" "http://www.w3.org/Graphics/SVG/1.1/DTD/svg11.dtd">
<svg version="1.1" id="Layer_1" xmlns="http://www.w3.org/2000/svg" xmlns:xlink="http://www.w3.org/1999/xlink" x="0px" y="0px"
	 width="1000px" height="200px" viewBox="0 0 1000 200" enable-background="new 0 0 1000 200" xml:space="preserve">
<path fill="#C64A34" d="M879.2,199.9c-1,0-1.8-0.7-2-1.7l-5.2-33.3c-0.198-1-1-1.7-2-1.7h-30.8c-1,0-1.8,0.7-2,1.7l-5.2,33.3
	c-0.198,1-1,1.7-2,1.7h-24c-1.198,0-2.198-1.2-2-2.4L835.302,1.7c0.198-1,1-1.7,2-1.7h34.8c1,0,1.8,0.7,2,1.7
	c0,0,31.1,195.7,31.1,195.8c0.2,1.2-0.699,2.4-2,2.4H879.2z M854.7,57.1c-0.898,0-1.8,0.6-2,1.7c0,0-10.513,69.8-10.513,69.9
	c-0.2,1.2,0.8,2.3,2,2.3c0,0,20.713,0,20.813,0c1.2,0,2.2-1.1,2-2.3c0,0-10.198-69.7-10.198-69.9C856.5,57.7,855.6,57.1,854.7,57.1z
	 M759.5,199.9c-1.1,0-2-0.9-2-2V34.7c0-1.1-0.898-2-2-2H730.6c-1.102,0-2-0.9-2-2V2.1c0-1.1,0.898-2,2-2H810.5c1.102,0,2,0.9,2,2
	v28.6c0,1.1-0.898,2-2,2H787.6c-1.102,0-2,0.9-2,2v163.2c0,1.1-0.9,2-2,2H759.5z M691.2,199.9c-1.1,0-2-0.9-2-2V2.1c0-1.1,0.9-2,2-2
	h24.102c1.1,0,2,0.9,2,2v195.8c0,1.1-0.9,2-2,2H691.2z M602.026,200.1c-15.3,0-16.101-8.301-16.101-34.699v-27.102
	c0-1.1,0.899-2,2-2h23.699c1.102,0,2,0.9,2,2V165.4c0,1.1,0.9,2,2,2h27c1.102,0,2-0.9,2-2v-43.5c0-0.801-0.5-1.602-1.199-1.9
	c-6.101-2.6-30.899-13.1-37.101-15.7c-12.7-5.399-20.3-9.6-20.3-23.5V34.2c0-10.3,0-19.1,2.2-25.2c1.5-4.3,4.399-8.8,14.199-8.8h53
	c14.399,0,16.5,7.4,16.7,34.7V62c0,1.1-0.899,2-2,2h-23.399c-1.101,0-2-0.9-2-2V34.9c0-1.1-0.9-2-2-2h-27c-1.101,0-2,0.9-2,2v38.2
	c0,0.8,0.5,1.6,1.199,1.9c5.601,2.3,35.5,15,36.5,15.4c11,4.6,20.601,8.6,20.601,22.5v53.5c0,10.199,0,18.898-2.101,24.898
	c-1.5,4.102-4.399,8.801-14,8.801H602.026L602.026,200.1z M929.9,200.1c-15.3,0-16.101-8.301-16.101-34.699v-27.102
	c0-1.1,0.899-2,2-2h23.7c1.101,0,2,0.9,2,2V165.4c0,1.1,0.899,2,2,2h27c1.101,0,2-0.9,2-2v-43.5c0-0.801-0.5-1.602-1.2-1.9
	c-6.101-2.6-30.899-13.1-37.101-15.7c-12.699-5.399-20.3-9.6-20.3-23.5V34.2c0-10.3,0-19.1,2.2-25.2c1.5-4.3,4.398-8.8,14.199-8.8
	h53c14.399,0,16.5,7.4,16.699,34.7V62c0,1.1-0.898,2-2,2H974.6c-1.102,0-2-0.9-2-2V34.9c0-1.1-0.9-2-2-2h-27c-1.102,0-2,0.9-2,2
	v38.2c0,0.8,0.5,1.6,1.199,1.9c5.601,2.3,35.5,15,36.5,15.4c11,4.6,20.601,8.6,20.601,22.5v53.5c0,10.199,0,18.898-2.101,24.898
	c-1.5,4.102-4.399,8.801-14,8.801H929.9L929.9,200.1z M566.523,78.3 M566.523,34.7 M542.224,113c-1.5,0-2.4,1.6-1.8,2.9
	c0,0,31.799,81.1,31.897,81.3c0.601,1.3-0.399,2.899-1.8,2.899h-20.599l-5.2-0.199c-0.801,0-1.5-0.5-1.801-1.2
	c0,0-30.998-79.101-31.1-79.2c-0.898-1.9-3.8-1.3-3.8,0.9v77.5c0,1.1-0.9,2-2,2h-23.7c-1.1,0-2-0.9-2-2V2.1c0-1.1,0.9-2,2-2
	l67.5-0.1c14.399,0,16.5,7.4,16.7,34.7v43.6c-0.2,27.3-2.301,34.7-16.7,34.7H542.224z M510.024,32.7c-1.1,0-2,0.9-2,2v48.9
	c0,1.1,0.9,2,2,2h27.101c1.102,0,2-0.9,2-2V34.7c0-1.1-0.898-2-2-2H510.024z M381.802,200.1c-1.102,0-2-0.899-2-2V2.299
	c0-1.1,0.898-2,2-2H459.5c1.102,0,2,0.9,2,2v28.6c0,1.1-0.898,2-2,2H410c-1.1,0-2,0.9-2,2v48.9c0,1.1,0.9,2,2,2h28.9
	c1.1,0,2,0.9,2,2v23.2c0,1.101-0.9,2-2,2H410c-1.1,0-2,0.899-2,2v50.399c0,1.102,0.9,2,2,2H459.6c1.1,0,2,0.899,2,2V198
	c0,1.1-0.9,2-2,2h-77.8L381.802,200.1L381.802,200.1z M295.103,199.902c-1,0-1.801-0.7-2-1.7c0,0-31.102-195.601-31.102-195.8
	c-0.2-1.2,0.7-2.4,2-2.4h24c1,0,1.8,0.7,2,1.7c0,0,20.602,139,20.7,139.3c0.301,2.2,3.602,2.301,4,0l20.5-139.3c0.102-1,1-1.7,2-1.7
	c0,0,23.9,0,24,0c1.2,0,2.2,1.2,2,2.4l-31.1,195.8c-0.2,1-1,1.7-2,1.7H295.103z M222.1,199.9c-1.102,0-2-0.9-2-2V2.1
	c0-1.1,0.898-2,2-2h24.1c1.1,0,2,0.9,2,2v195.8c0,1.1-0.9,2-2,2H222.1z M170,199.9c-0.898,0-1.7-0.602-1.898-1.5
	c0,0-28.9-101.7-28.9-101.8c-0.6-2.2-3.9-1.7-3.9,0.6v100.7c0,1.1-0.898,2-2,2h-24.1c-1.1,0-2-0.9-2-2V2.1c0-1.1,0.9-2,2-2H139
	c0.9,0,1.7,0.6,1.9,1.5l26.8,102.8c0.6,2.3,3.9,1.8,3.9-0.5V2.1c0-1.1,0.898-2,2-2h24.1c1.1,0,2,0.9,2,2v195.8c0,1.1-0.9,2-2,2H170z
	 M19.9,199.9C2.3,199.9,0,193,0,165.2V2.1c0-1.1,0.9-2,2-2h24.2c1.1,0,2,0.9,2,2v163.2c0,1.101,0.9,2,2,2h25.9c1.1,0,2-0.899,2-2
	V2.1c0-1.1,0.898-2,2-2H84.3c1.102,0,2,0.9,2,2v163.2C86.3,193,84,200,66.4,200H19.9V199.9z"/>
</svg>
