<svg xmlns="http://www.w3.org/2000/svg" version="1.1" viewBox="0 0 518 559">
 <path d="m262 465c-4.55 0-8.05 1.02-10.5 3.04-2.43 2.03-3.64 4.92-3.64 8.69 0 3 .86 5.39 2.6 7.16 1.76 1.77 4.53 3.06 8.3 3.87l3.78.84c2.3.5 3.82 1.08 4.58 1.72a3.35 3.35 0 0 1 1.17 2.74c0 1.31-.57 2.33-1.7 3.04-1.13.7-2.76 1.06-4.88 1.06-2.1 0-4.28-.32-6.54-.96a37.4 37.4 0 0 1 -6.98 -2.92v8.23c2.4.9 4.82 1.57 7.24 2.03 2.41.45 4.81.68 7.21.68 5.08 0 8.85-1.01 11.3-3.04 2.48-2.04 3.72-5.14 3.72-9.31 0-3.18-.89-5.62-2.66-7.35-1.77-1.72-4.76-3-8.96-3.84l-4.15-.84c-1.98-.4-3.35-.89-4.1-1.44a2.84 2.84 0 0 1 -1.12 -2.38 3.2 3.2 0 0 1 1.67 -2.99c1.12-.64 2.84-.96 5.17-.96 1.75 0 3.62.23 5.6.7 1.97.48 4 1.18 6.07 2.1v-1.81h10.3v30.4h9.75v-30.4h12.2v30.4h9.75v-37.8h-44.3v.64a54.4 54.4 0 0 0 -4.56 -.84 44.3 44.3 0 0 0 -6.4 -.49zm124 0c-6.52 0-11.6 1.75-15.4 5.25-3.74 3.49-5.62 8.28-5.62 14.4 0 6.02 1.84 10.8 5.52 14.3s8.67 5.26 15 5.26c2.78 0 5.48-.3 8.1-.88 2.61-.6 5.14-1.48 7.57-2.66v-18.2h-15.2v6.53h5.96v7.34c-.7.27-1.48.48-2.36.61-.86.12-1.8.18-2.8.18-3.74 0-6.62-1.1-8.64-3.27-2.03-2.18-3.04-5.26-3.04-9.26 0-4.04 1.05-7.14 3.14-9.3 2.11-2.17 5.1-3.26 8.99-3.26 2.09 0 4.17.3 6.25.88 2.1.6 4.2 1.49 6.3 2.69v-7.83a30.5 30.5 0 0 0 -6.53 -2.1c-2.3-.47-4.7-.7-7.21-.7zm-363 .69 14 37.8h11.6l12.6-34v34h26.9v-7.37h-17.1v-8.66h15.6v-7.37h-15.6v-7.03h16.6v-7.37h-34.7l-10 27.9-10-27.9zm67.2 0v37.8h25.8v-8h-17.2v-30.4zm29.3 0v37.8h9.74v-16h15.6v-7.37h-15.6v-7.03h16.6v-7.37zm28.4 0v37.8h26.9v-7.37h-17.1v-8.66h15.6v-7.37h-15.6v-7.03h16.6v-7.37zm29 0v37.8h9.75v-14.3h2.76c1.59 0 2.85.34 3.8 1.03.96.7 1.9 1.98 2.83 3.88l4.6 9.39h8l-5.3-10.7a18.7 18.7 0 0 0 -3.2 -4.86 7.12 7.12 0 0 0 -3.58 -2.07c2.43-.76 4.25-1.95 5.45-3.55 1.21-1.6 1.82-3.65 1.82-6.15 0-3.61-1.17-6.25-3.5-7.93-2.3-1.67-5.95-2.5-10.9-2.5h-14.9zm34.2 0v37.8h10.3c5.67 0 9.93-.4 12.8-1.22a17.3 17.3 0 0 0 7.3 -4.17 16.2 16.2 0 0 0 3.94 -5.9c.86-2.25 1.3-4.8 1.3-7.65 0-2.82-.44-5.34-1.3-7.57a16.9 16.9 0 0 0 -11.2 -10c-2.8-.83-7.07-1.24-12.8-1.24zm114 0v37.8h9.25v-25.9l13.7 25.9h10.9v-37.8h-9.25v25.9l-13.8-25.9zm79.7 0v37.8h26.9v-7.37h-17.1v-8.66h15.6v-7.37h-15.6v-7.03h27.3v30.4h9.75v-30.4h12.5v-7.37h-59.4zm72.5 0v37.8h9.75v-37.8zm-291 7.06h4.1c2.04 0 3.5.37 4.38 1.11.9.75 1.34 1.98 1.34 3.7 0 1.74-.45 2.99-1.34 3.75-.88.76-2.34 1.14-4.38 1.14h-4.1zm34.2.3h3.5c4 0 7.04.98 9.13 2.94 2.1 1.96 3.14 4.81 3.14 8.56 0 3.76-1.05 6.63-3.16 8.6-2.1 1.98-5.13 2.97-9.12 2.97h-3.5v-23zm-202 46c-6.05 0-10.8 1.74-14.3 5.22-3.44 3.46-5.16 8.27-5.16 14.4 0 6.11 1.72 10.9 5.16 14.4 3.46 3.48 8.23 5.22 14.3 5.22s10.8-1.74 14.3-5.22c3.45-3.47 5.17-8.27 5.17-14.4 0-6.12-1.72-10.9-5.17-14.4-3.44-3.48-8.2-5.22-14.3-5.22zm37.1 0c-4.56 0-8.05 1.02-10.5 3.04-2.43 2.03-3.65 4.92-3.65 8.69 0 3 .87 5.39 2.61 7.16 1.76 1.77 4.53 3.06 8.3 3.87l3.78.84c2.3.5 3.82 1.08 4.58 1.72a3.35 3.35 0 0 1 1.17 2.74c0 1.31-.57 2.33-1.7 3.03-1.13.71-2.76 1.07-4.89 1.07-2.1 0-4.27-.32-6.53-.97a37.4 37.4 0 0 1 -6.99 -2.9v8.22c2.42.9 4.83 1.57 7.24 2.03 2.42.45 4.82.68 7.22.68 5.08 0 8.85-1.01 11.3-3.04 1.88-1.55 3.05-3.73 3.5-6.51v8.82h26.9v-7.37h-17.1v-30.4h-9.75v23.7a8.7 8.7 0 0 0 -2.44 -4.85c-1.77-1.72-4.76-3-8.96-3.85l-4.16-.83c-1.97-.4-3.34-.89-4.1-1.44a2.84 2.84 0 0 1 -1.11 -2.38c0-1.35.56-2.35 1.67-3 1.11-.63 2.84-.95 5.17-.95 1.75 0 3.62.23 5.6.7 1.97.48 4 1.18 6.07 2.1v-8a56.8 56.8 0 0 0 -6.81 -1.39c-2.2-.32-4.33-.48-6.4-.48zm62 0c-6.06 0-10.8 1.74-14.3 5.22-3.45 3.47-5.17 8.28-5.17 14.4 0 6.11 1.72 10.9 5.17 14.4 3.46 3.48 8.21 5.22 14.3 5.22 6.08 0 10.8-1.74 14.3-5.22 3.44-3.47 5.16-8.27 5.16-14.4 0-6.12-1.72-10.9-5.16-14.4-3.45-3.48-8.2-5.22-14.3-5.22zm54.8 0c-6.06 0-10.8 1.74-14.3 5.22-3.44 3.47-5.16 8.28-5.16 14.4 0 6.11 1.72 10.9 5.16 14.4 3.46 3.48 8.22 5.22 14.3 5.22s10.8-1.74 14.3-5.22c3.44-3.47 5.17-8.27 5.17-14.4 0-6.12-1.73-10.9-5.17-14.4-3.44-3.48-8.2-5.22-14.3-5.22zm42.8 0c-6.51 0-11.6 1.75-15.4 5.24-3.75 3.5-5.62 8.3-5.62 14.4 0 6.03 1.84 10.8 5.52 14.3 3.68 3.51 8.67 5.27 15 5.27 2.79 0 5.49-.3 8.1-.88 2.62-.6 5.14-1.48 7.57-2.66v-18h-15.2v6.53h5.95v7.34c-.69.27-1.47.47-2.35.61-.86.12-1.8.18-2.81.18-3.73 0-6.6-1.1-8.63-3.27-2.03-2.18-3.04-5.27-3.04-9.27 0-4.03 1.04-7.13 3.14-9.29 2.1-2.17 5.1-3.26 8.99-3.26 2.09 0 4.17.3 6.25.88 2.09.6 4.2 1.49 6.3 2.69v-7.83a30.5 30.5 0 0 0 -6.53 -2.1c-2.3-.47-4.7-.7-7.22-.7zm179 0c-4.56 0-8.05 1.02-10.5 3.04-2.43 2.03-3.65 4.92-3.65 8.69 0 3 .87 5.39 2.6 7.16 1.76 1.77 4.53 3.06 8.31 3.87l3.78.84c2.3.5 3.82 1.08 4.58 1.72a3.35 3.35 0 0 1 1.16 2.74c0 1.31-.56 2.33-1.7 3.03-1.12.71-2.75 1.07-4.88 1.07-2.1 0-4.27-.32-6.53-.97a37.4 37.4 0 0 1 -6.99 -2.9v8.22c2.41.9 4.83 1.57 7.24 2.03 2.42.45 4.82.68 7.22.68 5.08 0 8.85-1.01 11.3-3.04a10.2 10.2 0 0 0 3.5 -6.42v8.73h9.75v-16h14.4v16h9.74v-37.8h-9.74v14.4h-16v-14.4h-9.75v23.6a8.67 8.67 0 0 0 -2.43 -4.79c-1.77-1.72-4.76-3-8.97-3.85l-4.15-.83c-1.97-.4-3.34-.89-4.1-1.44a2.84 2.84 0 0 1 -1.11 -2.38c0-1.35.55-2.35 1.67-3 1.11-.63 2.83-.95 5.16-.95 1.76 0 3.62.23 5.6.7 1.97.48 4 1.18 6.08 2.1v-8a56.8 56.8 0 0 0 -6.82 -1.39c-2.19-.32-4.33-.48-6.4-.48zm107 0c-4.55 0-8.05 1.02-10.5 3.04-2.43 2.03-3.64 4.92-3.64 8.69 0 3 .86 5.39 2.6 7.16 1.76 1.77 4.53 3.06 8.3 3.87l3.78.84c2.3.5 3.82 1.08 4.58 1.72a3.35 3.35 0 0 1 1.17 2.74c0 1.31-.57 2.33-1.7 3.03-1.13.71-2.76 1.07-4.88 1.07-2.1 0-4.28-.32-6.54-.97a37.4 37.4 0 0 1 -6.99 -2.9v8.22c2.42.9 4.83 1.57 7.25 2.03 2.41.45 4.81.68 7.21.68 5.08 0 8.85-1.01 11.3-3.04 2.48-2.04 3.72-5.14 3.72-9.31 0-3.18-.89-5.62-2.66-7.35-1.77-1.72-4.76-3-8.96-3.85l-4.15-.83c-1.98-.4-3.35-.89-4.1-1.44a2.84 2.84 0 0 1 -1.12 -2.38c0-1.35.56-2.35 1.67-3 1.12-.63 2.84-.95 5.17-.95 1.75 0 3.62.23 5.6.7 1.97.48 4 1.18 6.07 2.1v-8a56.8 56.8 0 0 0 -6.81 -1.39c-2.2-.32-4.33-.48-6.4-.48zm-244 .69-14 37.8h9.8l2.4-6.89h15.2l2.38 6.89h9.8l-14-37.8h-11.6zm26.3 0v37.8h9.74v-15l15 14.9h36.5v-7.37h-17.1v-8.66h15.6v-7.37h-15.6v-7.04h16.6v-7.36h-38l-14 13.8v-13.8h-9.74zm63.5 0v37.8h9.75v-14.3h2.76c1.58 0 2.85.34 3.8 1.03.96.7 1.9 1.98 2.83 3.87l4.6 9.4h10.4l-5.3-10.7a18.7 18.7 0 0 0 -3.2 -4.86 7.12 7.12 0 0 0 -3.58 -2.07c2.43-.76 4.25-1.95 5.44-3.55 1.22-1.6 1.83-3.65 1.83-6.15 0-3.61-1.17-6.26-3.5-7.93-2.31-1.67-5.96-2.5-10.9-2.5h-14.9zm102 0v22.7c0 5.35 1.34 9.33 4.03 12 2.68 2.61 6.76 3.92 12.2 3.92 5.5 0 9.6-1.3 12.3-3.92 2.68-2.62 4.03-6.6 4.03-12v-22.7h-9.75v22.7c0 3.12-.52 5.36-1.55 6.7-1 1.34-2.68 2-5 2s-4-.66-5.02-2-1.52-3.58-1.52-6.7v-22.7zm-132 .67v34.6l-17-18 18-17zm-299 5.7c2.98 0 5.3 1.1 6.93 3.3 1.64 2.2 2.46 5.28 2.46 9.26 0 3.97-.82 7.05-2.46 9.25s-3.95 3.29-6.93 3.29-5.28-1.1-6.92-3.3c-1.63-2.19-2.45-5.27-2.45-9.24 0-3.98.82-7.07 2.45-9.26 1.64-2.2 3.94-3.3 6.92-3.3zm99.1 0c3 0 5.3 1.1 6.94 3.3s2.46 5.28 2.46 9.26c0 3.97-.82 7.05-2.46 9.25s-3.95 3.29-6.94 3.29c-2.97 0-5.27-1.1-6.9-3.3-1.64-2.19-2.46-5.27-2.46-9.24 0-3.98.82-7.07 2.45-9.26 1.64-2.2 3.94-3.3 6.91-3.3zm54.8 0c2.99 0 5.3 1.1 6.94 3.3s2.45 5.28 2.45 9.26c0 3.97-.81 7.05-2.45 9.25s-3.95 3.29-6.94 3.29c-2.97 0-5.27-1.1-6.91-3.3-1.64-2.19-2.46-5.27-2.46-9.24 0-3.98.82-7.07 2.46-9.26 1.64-2.2 3.94-3.3 6.91-3.3zm184 .7h4.1c2.04 0 3.5.36 4.38 1.1.9.75 1.34 1.98 1.34 3.7 0 1.74-.45 2.99-1.34 3.75-.88.76-2.34 1.14-4.38 1.14h-4.1v-9.7zm-93.7 1.79 5.16 15h-10.4z" fill="#231f20"/>
 <path d="m166-.00195c-20.1 0-37.6 10.1-47.7 27.5v-.0039l-91.9 160c-10 17.4-10 37.6 0 55l.002.002 92.6 160c10 17.4 27.6 27.5 47.7 27.5h185c20.1 0 37.6-10.1 47.7-27.5v-.002l92.6-160c10-17.4 10-37.6 0-55v-.002l-94-160v.0039c-10-16.9-27-27-47-27zm0 33.7h185c4.16 0 16.4 7.07 18.5 10.7v.002l92.6 160c2.08 3.61 2.08 17.7 0 21.3l-92.6 160v.002c-2.08 3.6-14.3 10.7-18.5 10.7h-186c-4.16 0-16.4-7.07-18.5-10.7v-.002l-92.7-159c-2.08-3.61-2.08-17.7 0-21.3l92.7-161v-.002c2.08-3.61 14.3-10.7 18.5-10.7z" fill="#54c5b0"/>
 <path fill="#231f20" d="m206 239 25.5-71h-51.2zm66.4-98.6-66.4 174-66.7-174h133m107 25.5h-35v141h-27.6v-141h-35v-25.5h97.6v25.5"/>
</svg>
