<?xml version="1.0" encoding="utf-8"?>
<!-- Generated by IcoMoon.io -->
<!DOCTYPE svg PUBLIC "-//W3C//DTD SVG 1.1//EN" "http://www.w3.org/Graphics/SVG/1.1/DTD/svg11.dtd">
<svg version="1.1" xmlns="http://www.w3.org/2000/svg" xmlns:xlink="http://www.w3.org/1999/xlink" width="238" height="256" viewBox="0 0 238 256">
<path fill="rgb(0, 0, 0)" d="M234.24 68.352q5.632 8.192 2.56 18.432l-39.424 129.28q-2.56 9.216-10.752 15.36t-17.664 6.4h-131.84q-11.008 0-21.248-7.68t-14.080-18.944q-3.584-9.472-0.256-18.176 0-0.512 0.256-3.84t0.768-5.12q0-1.28-0.512-3.072t-0.512-2.816q0.256-1.536 1.28-3.072t2.304-3.328 2.304-3.328q3.328-5.376 6.4-13.056t4.352-13.056q0.512-1.536 0-4.352t0-4.096q0.512-1.536 2.304-3.84t2.56-3.328q3.072-5.12 5.888-13.056t3.584-13.056q0.256-1.28-0.256-4.352t0-4.096q0.512-1.792 3.072-4.352t3.328-3.328q2.56-3.584 5.888-12.032t4.096-13.824q0-1.024-0.512-3.584t-0.256-3.84q0.256-1.024 1.28-2.56t2.56-3.328 2.56-2.816q1.024-1.792 2.304-4.352t2.048-5.12 2.304-5.12 2.816-4.608 3.84-3.328 5.12-1.536 6.656 0.768v0.256q5.376-1.28 7.168-1.28h108.8q10.496 0 16.128 8.192t2.56 18.432l-38.912 129.536q-5.12 16.896-10.24 21.76t-18.432 5.12h-124.16q-3.84 0-5.376 2.048-1.536 2.304-0.256 6.144 3.584 9.984 20.736 9.984h131.84q4.096 0 7.936-2.304t4.864-5.888l43.008-140.8q1.024-3.328 0.768-8.192 5.376 2.048 8.448 6.144zM82.176 68.608q-0.512 1.792 0.256 3.072t2.816 1.536h86.784q2.048 0 3.84-1.536t2.304-3.072l3.072-9.216q0.512-1.792-0.512-3.072t-2.816-1.536h-86.784q-1.792 0-3.584 1.536t-2.304 3.072zM70.4 105.216q-0.768 1.792 0.256 3.072t2.816 1.536h86.784q1.792 0 3.584-1.536t2.56-3.072l2.816-9.216q0.768-1.792-0.256-3.328t-2.816-1.28h-86.784q-2.048 0-3.584 1.28t-2.56 3.328z"></path>
</svg>
