<?xml version="1.0" encoding="utf-8"?>
<!-- Generated by IcoMoon.io -->
<!DOCTYPE svg PUBLIC "-//W3C//DTD SVG 1.1//EN" "http://www.w3.org/Graphics/SVG/1.1/DTD/svg11.dtd">
<svg version="1.1" xmlns="http://www.w3.org/2000/svg" xmlns:xlink="http://www.w3.org/1999/xlink" width="256" height="256" viewBox="0 0 256 256">
<path fill="rgb(0, 0, 0)" d="M128 102.4q16.384 0 27.392 11.264t11.008 27.136-11.264 27.136-27.136 11.264-27.136-11.264-11.264-27.136 11.264-27.136 27.136-11.264zM230.4 64q10.752 0 18.176 7.424t7.424 18.176v115.2q0 10.24-7.424 17.92t-18.176 7.68h-204.8q-10.24 0-17.92-7.68t-7.68-17.92v-115.2q0-10.752 7.68-18.176t17.92-7.424h30.72q7.168 0 10.24-7.68l7.68-23.552q2.56-7.168 10.24-7.168h87.040q7.68 0 10.24 7.168l7.68 23.552q3.072 7.68 10.24 7.68h30.72zM128 204.8q26.624 0 45.312-18.688t18.688-45.312-18.688-45.312-45.312-18.688-45.312 18.688-18.688 45.312 18.688 45.312 45.312 18.688zM221.696 107.52q3.584 0 6.144-2.816t2.56-6.4-2.56-6.144-6.144-2.56q-9.216 0-9.216 8.704 0 4.096 2.816 6.656t6.4 2.56z"></path>
</svg>
