<?xml version="1.0" encoding="utf-8"?>
<!-- Generated by IcoMoon.io -->
<!DOCTYPE svg PUBLIC "-//W3C//DTD SVG 1.1//EN" "http://www.w3.org/Graphics/SVG/1.1/DTD/svg11.dtd">
<svg version="1.1" xmlns="http://www.w3.org/2000/svg" xmlns:xlink="http://www.w3.org/1999/xlink" width="201" height="256" viewBox="0 0 201 256">
<path fill="rgb(0, 0, 0)" d="M185.344 188.928q0 5.632-3.84 9.728l-19.456 19.456q-4.096 3.84-9.728 3.84t-9.728-3.84l-41.984-42.24-41.984 42.24q-4.096 3.84-9.728 3.84t-9.728-3.84l-19.456-19.456q-4.096-4.096-4.096-9.728t4.096-9.728l41.984-41.984-41.984-41.984q-4.096-4.096-4.096-9.728t4.096-9.728l19.456-19.456q4.096-4.096 9.728-4.096t9.728 4.096l41.984 41.984 41.984-41.984q4.096-4.096 9.728-4.096t9.728 4.096l19.456 19.456q3.84 3.84 3.84 9.728t-3.84 9.728l-41.984 41.984 41.984 41.984q3.84 3.84 3.84 9.728z"></path>
</svg>
