<?xml version="1.0" encoding="utf-8"?>
<!-- Generated by IcoMoon.io -->
<!DOCTYPE svg PUBLIC "-//W3C//DTD SVG 1.1//EN" "http://www.w3.org/Graphics/SVG/1.1/DTD/svg11.dtd">
<svg version="1.1" xmlns="http://www.w3.org/2000/svg" xmlns:xlink="http://www.w3.org/1999/xlink" width="229" height="256" viewBox="0 0 229 256">
<path fill="rgb(0, 0, 0)" d="M0 256v-166.144h228.608v166.144h-228.608zM0 75.52v-56.576h27.904v36.096h51.2v-36.096h70.4v36.096h50.944v-36.096h28.16v56.576h-228.608zM43.008 39.936v-39.936h20.992v39.936h-20.992zM58.112 198.4q0 28.672 31.488 28.672 12.032 0 21.504-8.192 9.984-7.936 9.984-20.48 0-17.408-19.968-23.040 12.288-3.84 16.384-12.288 3.072-7.168-0.512-18.688-6.912-15.872-27.392-15.872-13.056 0-22.016 6.656t-9.472 19.712h18.432q0-11.52 12.544-11.776 11.008 0 11.52 13.312 0 12.544-21.504 12.032v14.592q12.288 0 17.408 2.048 5.888 2.816 5.888 11.776 0 14.592-13.824 15.616-11.008 0-12.032-14.080h-18.432zM130.048 161.024q12.544-3.584 22.528-12.032v76.032h17.92v-94.976h-16.384q-9.728 9.472-24.064 14.848v16.128zM164.608 39.936v-39.936h20.992v39.936h-20.992z"></path>
</svg>
