<?xml version="1.0" encoding="utf-8"?>
<!-- Generated by IcoMoon.io -->
<!DOCTYPE svg PUBLIC "-//W3C//DTD SVG 1.1//EN" "http://www.w3.org/Graphics/SVG/1.1/DTD/svg11.dtd">
<svg version="1.1" xmlns="http://www.w3.org/2000/svg" xmlns:xlink="http://www.w3.org/1999/xlink" width="256" height="256" viewBox="0 0 256 256">
<path fill="rgb(0, 0, 0)" d="M256 101.376v113.408q0 9.472-6.656 16.128t-16.128 6.912h-210.432q-9.216 0-16.128-6.912t-6.656-16.128v-113.408q6.4 7.168 14.336 12.544 51.712 35.072 71.168 49.152 8.192 6.144 13.056 9.472t13.568 6.912 15.616 3.328h0.512q7.168 0 15.616-3.328t13.568-6.912 13.056-9.472q24.32-17.408 71.168-49.152 8.192-5.632 14.336-12.544zM256 59.392q0 11.264-6.912 21.504t-17.408 17.664q-53.76 37.376-67.072 46.336-1.28 1.024-5.888 4.352t-7.68 5.632-7.424 4.608-8.448 3.84-6.912 1.28h-0.512q-3.072 0-6.912-1.28t-8.448-3.84-7.424-4.608-7.68-5.632-5.888-4.352q-13.056-8.96-37.632-25.856t-29.184-20.48q-8.96-5.888-16.64-16.384t-7.936-19.712q0-11.008 5.888-18.432t16.896-7.424h210.432q9.216 0 15.872 6.656t6.912 16.128z"></path>
</svg>
