<?xml version="1.0" encoding="utf-8"?>
<!-- Generated by IcoMoon.io -->
<!DOCTYPE svg PUBLIC "-//W3C//DTD SVG 1.1//EN" "http://www.w3.org/Graphics/SVG/1.1/DTD/svg11.dtd">
<svg version="1.1" xmlns="http://www.w3.org/2000/svg" xmlns:xlink="http://www.w3.org/1999/xlink" width="256" height="256" viewBox="0 0 256 256">
<path fill="rgb(0, 0, 0)" d="M0 134.144q1.536-12.544 16.384-28.16 20.224-20.48 45.056-32.768 33.024-15.616 66.56-15.616 7.424 0 15.104 0.512l18.944-33.024q2.56-4.096 5.888-4.608 1.024 0 2.048 0.512l13.056 8.192q4.352 1.792 0.512 8.448l-14.592 26.112-12.032 19.968-10.496 18.432-36.864 64-10.496 18.432-12.032 20.48-14.592 25.6q-3.84 6.4-7.936 3.84l-13.568-7.936q-3.84-2.048 0-8.448l12.544-22.016-2.048-1.024q-26.368-13.568-45.056-33.024-16.384-18.432-16.384-27.904zM67.584 134.144q0 18.944 12.032 34.048l12.288-21.504q-2.304-6.144-2.304-12.544 0-13.056 8.704-23.296t21.76-12.8l12.544-21.504h-4.608q-25.088 0-42.752 16.896t-17.664 40.704zM112.896 209.664l10.496-18.176h4.608q25.088 0 42.752-16.64t17.664-40.704q0-18.944-12.032-34.048l16.128-27.904q0.512 0.512 1.024 0.768t1.024 0.256q26.368 13.312 45.056 33.024 16.384 18.432 16.384 27.904-1.536 12.544-16.384 27.904-20.224 20.48-45.056 33.024-33.024 15.616-66.56 15.616-6.4 0-15.104-1.024zM135.936 169.984l28.16-48.384q2.304 6.4 2.304 12.544 0 13.056-8.704 23.040t-21.76 12.8z"></path>
</svg>
