<?xml version="1.0" encoding="utf-8"?>
<!-- Generated by IcoMoon.io -->
<!DOCTYPE svg PUBLIC "-//W3C//DTD SVG 1.1//EN" "http://www.w3.org/Graphics/SVG/1.1/DTD/svg11.dtd">
<svg version="1.1" xmlns="http://www.w3.org/2000/svg" xmlns:xlink="http://www.w3.org/1999/xlink" width="304" height="256" viewBox="0 0 304 256">
<path fill="rgb(0, 0, 0)" d="M151.389 188.127l19.534-19.839-25.944-25.944-19.534 19.839v9.462h16.177v16.482h9.767zM226.169 65.428q-2.747-2.747-5.494 0l-59.823 59.823q-2.747 2.747 0 5.494t5.494 0l59.823-59.823q2.747-2.747 0-5.494zM239.904 166.456v32.353q0 20.45-14.345 34.795t-34.795 14.345h-141.623q-20.45 0-34.795-14.345t-14.345-34.795v-141.623q0-20.145 14.345-34.49t34.795-14.65h141.623q10.683 0 19.839 4.273 2.747 1.221 3.052 3.968 0.611 3.052-1.526 4.884l-8.241 8.546q-2.442 2.442-5.494 1.221-3.968-0.916-7.631-0.916h-141.623q-11.293 0-19.229 7.936t-8.241 19.229v141.623q0 11.293 8.241 19.229t19.229 8.241h141.623q11.293 0 19.229-8.241t7.936-19.229v-21.365q0-2.137 1.526-3.663l10.988-10.988q2.442-2.442 6.105-1.221t3.357 4.883zM223.422 41.010l49.141 48.835-114.458 114.458h-49.141v-48.835zM299.116 63.291l-15.566 15.871-49.141-49.141 15.566-15.566q4.883-4.883 11.599-4.883t11.599 4.883l25.944 25.638q4.884 4.883 4.884 11.599t-4.884 11.599z"></path>
</svg>
