<?xml version="1.0" encoding="utf-8"?>
<!-- Generated by IcoMoon.io -->
<!DOCTYPE svg PUBLIC "-//W3C//DTD SVG 1.1//EN" "http://www.w3.org/Graphics/SVG/1.1/DTD/svg11.dtd">
<svg version="1.1" xmlns="http://www.w3.org/2000/svg" xmlns:xlink="http://www.w3.org/1999/xlink" width="256" height="256" viewBox="0 0 256 256">
<path fill="rgb(0, 0, 0)" d="M36.608 187.392v27.392q0 1.792-1.28 3.328t-3.328 1.28h-27.392q-1.792 0-3.328-1.28t-1.28-3.328v-27.392q0-1.792 1.28-3.072t3.328-1.536h27.392q1.792 0 3.328 1.536t1.28 3.072zM36.608 132.608v27.392q0 1.792-1.28 3.328t-3.328 1.28h-27.392q-1.792 0-3.328-1.28t-1.28-3.328v-27.392q0-1.792 1.28-3.328t3.328-1.28h27.392q1.792 0 3.328 1.28t1.28 3.328zM36.608 77.824v27.392q0 1.792-1.28 3.072t-3.328 1.536h-27.392q-1.792 0-3.328-1.536t-1.28-3.072v-27.392q0-2.048 1.28-3.328t3.328-1.28h27.392q1.792 0 3.328 1.28t1.28 3.328zM256 187.392v27.392q0 1.792-1.28 3.328t-3.328 1.28h-192q-1.792 0-3.072-1.28t-1.536-3.328v-27.392q0-1.792 1.536-3.072t3.072-1.536h192q1.792 0 3.328 1.536t1.28 3.072zM36.608 22.784v27.392q0 2.048-1.28 3.328t-3.328 1.28h-27.392q-1.792 0-3.328-1.28t-1.28-3.328v-27.392q0-1.792 1.28-3.072t3.328-1.536h27.392q1.792 0 3.328 1.536t1.28 3.072zM256 132.608v27.392q0 1.792-1.28 3.328t-3.328 1.28h-192q-1.792 0-3.072-1.28t-1.536-3.328v-27.392q0-1.792 1.536-3.328t3.072-1.28h192q1.792 0 3.328 1.28t1.28 3.328zM256 77.824v27.392q0 1.792-1.28 3.072t-3.328 1.536h-192q-1.792 0-3.072-1.536t-1.536-3.072v-27.392q0-2.048 1.536-3.328t3.072-1.28h192q1.792 0 3.328 1.28t1.28 3.328zM256 22.784v27.392q0 2.048-1.28 3.328t-3.328 1.28h-192q-1.792 0-3.072-1.28t-1.536-3.328v-27.392q0-1.792 1.536-3.072t3.072-1.536h192q1.792 0 3.328 1.536t1.28 3.072z"></path>
</svg>
