<?xml version="1.0" encoding="utf-8"?>
<!-- Generated by IcoMoon.io -->
<!DOCTYPE svg PUBLIC "-//W3C//DTD SVG 1.1//EN" "http://www.w3.org/Graphics/SVG/1.1/DTD/svg11.dtd">
<svg version="1.1" xmlns="http://www.w3.org/2000/svg" xmlns:xlink="http://www.w3.org/1999/xlink" width="256" height="256" viewBox="0 0 256 256">
<path fill="rgb(0, 0, 0)" d="M46.848 0c-26.112 0-46.848 20.736-46.848 46.848v162.304c0 26.112 20.736 46.848 46.848 46.848h88.064v-100.096h-26.624v-36.096h26.624v-30.72c0-24.064 15.616-46.336 51.456-46.336 14.592 0 25.6 1.28 25.6 1.28l-1.024 33.792s-11.008-0.256-23.040-0.256c-12.8 0-14.848 6.144-14.848 15.872v26.368h38.912l-1.536 36.096h-37.376v100.096h36.096c26.112 0 46.848-20.736 46.848-46.848v-162.304c0-26.112-20.736-46.848-46.848-46.848h-162.304z"></path>
</svg>
