<?xml version="1.0" encoding="utf-8"?>
<!-- Generated by IcoMoon.io -->
<!DOCTYPE svg PUBLIC "-//W3C//DTD SVG 1.1//EN" "http://www.w3.org/Graphics/SVG/1.1/DTD/svg11.dtd">
<svg version="1.1" xmlns="http://www.w3.org/2000/svg" xmlns:xlink="http://www.w3.org/1999/xlink" width="212" height="256" viewBox="0 0 212 256">
<path fill="rgb(0, 0, 0)" d="M59.962 116.662h92.325v-34.986q0-19.113-13.606-32.719t-32.719-13.282-32.719 13.282-13.282 32.719v34.987zM210.274 133.831v104.311q0 7.127-5.183 11.986t-12.31 5.183h-173.312q-7.451 0-12.31-5.183t-5.183-11.986v-104.311q0-7.127 5.183-12.31t12.31-4.859h5.507v-34.987q0-33.043 23.972-57.015t57.015-23.972 57.339 23.972 23.648 57.015v34.987h5.831q7.451 0 12.31 4.859t5.183 12.31z"></path>
</svg>
