<?xml version="1.0" encoding="utf-8"?>
<!-- Generated by IcoMoon.io -->
<!DOCTYPE svg PUBLIC "-//W3C//DTD SVG 1.1//EN" "http://www.w3.org/Graphics/SVG/1.1/DTD/svg11.dtd">
<svg version="1.1" xmlns="http://www.w3.org/2000/svg" xmlns:xlink="http://www.w3.org/1999/xlink" width="246" height="256" viewBox="0 0 246 256">
<path fill="rgb(0, 0, 0)" d="M10.1 138.501q-0.512-3.073 1.793-5.635t5.635-2.817l23.051-4.098q3.586-0.512 6.659 1.281t3.33 5.123-1.793 5.891-6.147 3.329l-22.538 3.329q-3.586 0.512-6.403-1.28t-3.586-5.123zM10.613 74.215q-1.537-3.329 0-6.147t4.866-4.098 6.659 1.025l21.002 8.964q3.586 1.537 4.866 4.61t0 5.891-4.61 4.098-6.659 0l-21.002-9.989q-3.586-1.025-5.122-4.354zM51.592 21.198q0.512-3.329 3.586-5.378 2.561-1.28 5.635-0.512t5.379 4.098l12.55 19.465q1.793 3.074 1.281 6.659t-2.817 4.866-5.891 0.768-5.123-3.842l-13.062-19.465q-2.049-3.329-1.537-6.659zM66.19 82.923q4.354-9.989 12.55-16.904t19.209-10.501 24.075-3.586h1.025q13.062 0 24.075 3.586t19.209 10.501 12.806 16.904q11.013 26.636-3.842 58.139-5.635 11.013-12.037 23.563-3.586 6.403-6.403 18.697t-4.098 15.623q-1.024 3.073-4.098 3.586h-51.992q-3.073-0.512-4.61-3.586-7.427-28.429-9.989-34.32-6.403-12.55-12.037-23.563-14.855-33.552-3.842-58.139zM91.546 242.486q0-2.049 1.281-3.073t3.329-1.28h53.529q1.537 0 2.817 1.28t1.28 3.073v8.964q0 2.049-1.28 3.329t-2.817 1.281h-53.529q-4.61 0-4.61-4.61v-8.964zM91.546 225.069v-8.964q0-4.61 4.61-4.61h53.529q1.537 0 2.817 1.28t1.28 3.329v8.964q0 2.049-1.28 3.329t-2.817 1.024h-53.529q-2.049 0-3.329-1.024t-1.281-3.329zM115.621 31.955v-23.051q0-4.098 2.049-6.403t5.379-2.561q3.073 0 5.379 2.561t2.305 6.403v23.051q0 3.586-2.305 5.891t-5.379 2.561q-3.329 0-5.379-2.561t-2.049-5.891zM165.053 45.529q-0.256-3.586 1.537-6.659l12.55-19.465q2.561-3.073 5.635-4.098t5.891 0.512q2.561 2.049 3.073 5.379t-1.537 6.659l-12.55 19.465q-2.561 3.074-5.379 3.842t-5.891-0.768-3.329-4.866zM195.274 132.354q0.512-3.329 3.073-5.123t6.403-1.281l23.051 4.098q3.329 0.512 5.635 3.073t1.793 5.379q-0.512 3.586-3.329 5.379t-6.659 1.024l-23.051-3.329q-3.586-0.512-5.635-3.329t-1.28-5.891zM197.323 84.46q-1.024-3.073 0.256-5.891t4.61-4.61l21.514-8.964q3.073-2.049 6.147-1.025t4.866 4.098 0 6.147-5.123 4.354l-21.002 9.989q-3.329 1.025-6.659 0t-4.61-4.098z"></path>
</svg>
