<?xml version="1.0" encoding="utf-8"?>
<!-- Generated by IcoMoon.io -->
<!DOCTYPE svg PUBLIC "-//W3C//DTD SVG 1.1//EN" "http://www.w3.org/Graphics/SVG/1.1/DTD/svg11.dtd">
<svg version="1.1" xmlns="http://www.w3.org/2000/svg" xmlns:xlink="http://www.w3.org/1999/xlink" width="220" height="256" viewBox="0 0 220 256">
<path fill="rgb(0, 0, 0)" d="M180.992 38.4l38.4-38.4v103.68h-103.68l39.168-39.168q-19.712-15.872-45.056-15.872-28.416 0-49.408 19.456t-23.552 47.616h-36.608q2.304-43.52 34.048-73.472t75.52-29.952q40.192 0 71.168 26.112zM109.824 207.36q28.416 0 49.408-19.456t23.296-47.616h36.608q-2.304 43.52-34.048 73.472t-75.264 29.952q-40.448 0-71.424-26.112l-38.4 38.4v-103.68h103.68l-39.168 39.168q19.968 15.872 45.312 15.872z"></path>
</svg>
