<?xml version="1.0" encoding="utf-8"?>
<!-- Generated by IcoMoon.io -->
<!DOCTYPE svg PUBLIC "-//W3C//DTD SVG 1.1//EN" "http://www.w3.org/Graphics/SVG/1.1/DTD/svg11.dtd">
<svg version="1.1" xmlns="http://www.w3.org/2000/svg" xmlns:xlink="http://www.w3.org/1999/xlink" width="228" height="256" viewBox="0 0 228 256">
<path fill="rgb(0, 0, 0)" d="M2.816 121.6q-5.888-22.272 0-44.288t22.272-38.4q12.288-12.288 28.16-18.944t32.768-6.4q16.64 0 32.512 6.4t28.16 18.944q13.312 13.312 19.712 30.464t5.376 35.072-9.216 33.792q7.168 2.048 12.544 7.424l44.544 44.288q8.96 9.216 8.96 21.76t-8.96 21.76q-8.96 8.96-21.76 8.96t-21.76-8.96l-44.288-44.544q-5.632-5.12-7.68-12.544-17.92 8.96-38.144 8.96-16.896 0-32.768-6.4t-28.16-18.688q-16.384-16.384-22.272-38.656zM28.672 99.584q0 23.808 16.64 40.448 16.896 16.64 40.704 16.64 23.552 0 40.192-16.64t16.896-40.448-16.896-40.448q-16.896-16.896-40.192-16.896-23.552 0-40.704 16.896-16.64 16.64-16.64 40.448z"></path>
</svg>
