<?xml version="1.0" encoding="utf-8"?>
<!-- Generated by IcoMoon.io -->
<!DOCTYPE svg PUBLIC "-//W3C//DTD SVG 1.1//EN" "http://www.w3.org/Graphics/SVG/1.1/DTD/svg11.dtd">
<svg version="1.1" xmlns="http://www.w3.org/2000/svg" xmlns:xlink="http://www.w3.org/1999/xlink" width="256" height="256" viewBox="0 0 256 256">
<path fill="rgb(0, 0, 0)" d="M256 256.256h-49.408q0-41.984-16.384-80.384t-44.032-66.048-65.792-44.032-80.384-16.384v-49.152q51.968 0 99.328 20.224t81.664 54.784 54.784 81.664 20.224 99.328zM168.96 256.256h-49.152q0-49.664-35.072-84.736t-84.736-35.072v-49.152q45.824 0 84.736 22.528t61.696 61.696 22.528 84.736zM64 224.256q0 13.312-9.216 22.784t-22.784 9.216-22.528-9.216-9.472-22.784 9.472-22.784 22.528-9.216 22.784 9.216 9.216 22.784z"></path>
</svg>
