<?xml version="1.0" encoding="utf-8"?>
<!-- Generated by IcoMoon.io -->
<!DOCTYPE svg PUBLIC "-//W3C//DTD SVG 1.1//EN" "http://www.w3.org/Graphics/SVG/1.1/DTD/svg11.dtd">
<svg version="1.1" xmlns="http://www.w3.org/2000/svg" xmlns:xlink="http://www.w3.org/1999/xlink" width="292" height="256" viewBox="0 0 292 256">
<path fill="rgb(0, 0, 0)" d="M146.176 73.216h-54.784v54.784h54.784v-54.784zM164.608 164.608v18.176h-91.392v-18.176h91.392zM164.608 54.784v91.392h-91.392v-91.392h91.392zM256 164.608v18.176h-73.216v-18.176h73.216zM256 128v18.176h-73.216v-18.176h73.216zM256 91.392v18.432h-73.216v-18.432h73.216zM256 54.784v18.432h-73.216v-18.432h73.216zM36.608 192v-137.216h-18.432v137.216q0 3.584 2.816 6.4t6.4 2.816 6.4-2.816 2.816-6.4zM274.176 192v-155.392h-219.392v155.392q0 4.608-1.536 9.216h211.968q3.584 0 6.4-2.816t2.56-6.4zM292.608 18.176v173.824q0 11.52-7.936 19.456t-19.456 7.936h-237.824q-11.264 0-19.456-7.936t-7.936-19.456v-155.392h36.608v-18.432h256z"></path>
</svg>
