<?xml version="1.0" encoding="utf-8"?>
<!-- Generated by IcoMoon.io -->
<!DOCTYPE svg PUBLIC "-//W3C//DTD SVG 1.1//EN" "http://www.w3.org/Graphics/SVG/1.1/DTD/svg11.dtd">
<svg version="1.1" xmlns="http://www.w3.org/2000/svg" xmlns:xlink="http://www.w3.org/1999/xlink" width="238" height="256" viewBox="0 0 238 256">
<path fill="rgb(0, 0, 0)" d="M109.824 45.824v100.352q0 14.848-5.888 28.416t-15.616 23.296-23.296 15.872-28.416 5.632h-9.216q-3.584 0-6.4-2.56t-2.816-6.656v-18.176q0-3.84 2.816-6.4t6.4-2.816h9.216q15.104 0 25.856-10.752t10.752-25.856v-4.352q0-5.888-4.096-9.728t-9.728-4.096h-32q-11.264 0-19.456-7.936t-7.936-19.456v-54.784q0-11.52 7.936-19.456t19.456-8.192h54.784q11.52 0 19.456 8.192t8.192 19.456zM237.824 45.824v100.352q0 14.848-5.888 28.416t-15.616 23.296-23.296 15.872-28.416 5.632h-9.216q-3.584 0-6.4-2.56t-2.816-6.656v-18.176q0-3.84 2.816-6.4t6.4-2.816h9.216q15.104 0 25.856-10.752t10.752-25.856v-4.352q0-5.888-4.096-9.728t-9.728-4.096h-32q-11.264 0-19.456-7.936t-7.936-19.456v-54.784q0-11.52 7.936-19.456t19.456-8.192h54.784q11.52 0 19.456 8.192t8.192 19.456z"></path>
</svg>
