<?xml version="1.0" encoding="utf-8"?>
<!-- Generated by IcoMoon.io -->
<!DOCTYPE svg PUBLIC "-//W3C//DTD SVG 1.1//EN" "http://www.w3.org/Graphics/SVG/1.1/DTD/svg11.dtd">
<svg version="1.1" xmlns="http://www.w3.org/2000/svg" xmlns:xlink="http://www.w3.org/1999/xlink" width="256" height="256" viewBox="0 0 256 256">
<path fill="rgb(0, 0, 0)" d="M0 128q1.536-12.544 16.384-28.16 20.224-20.48 45.056-33.024 33.024-15.36 66.56-15.36 35.072 0.512 66.56 15.36 26.368 13.568 45.056 33.024 16.384 18.688 16.384 28.16-1.536 12.544-16.384 27.904-20.224 20.48-45.056 33.024-33.024 15.616-66.56 15.616-35.072-0.512-66.56-15.616-26.368-13.568-45.056-33.024-16.384-18.432-16.384-27.904zM67.584 128q0 24.064 17.664 40.704t42.752 16.64 42.752-16.64 17.664-40.704-17.664-40.704-42.752-16.896-42.752 16.896-17.664 40.704zM89.6 127.744q0-15.36 11.264-26.112t27.136-10.752 27.136 10.752 11.264 26.112-11.264 26.112-27.136 11.008-27.136-11.008-11.264-26.112z"></path>
</svg>
