<?xml version="1.0" encoding="utf-8"?>
<!-- Generated by IcoMoon.io -->
<!DOCTYPE svg PUBLIC "-//W3C//DTD SVG 1.1//EN" "http://www.w3.org/Graphics/SVG/1.1/DTD/svg11.dtd">
<svg version="1.1" xmlns="http://www.w3.org/2000/svg" xmlns:xlink="http://www.w3.org/1999/xlink" width="274" height="256" viewBox="0 0 274 256">
<path fill="rgb(0, 0, 0)" d="M273.92 240.128q0 5.376-0.512 16.128h-273.152q0-2.56 0-7.936t-0.256-8.192q0-7.68 0.256-9.472 3.072-12.544 16.384-21.76t28.672-13.568 32-12.032 24.832-16.64q4.352-5.632 4.352-9.728 0-5.632-2.816-18.688-1.024-5.376-2.56-9.472t-4.096-8.448-4.096-7.936q-3.84-8.96-8.448-33.792-1.536-9.728-1.536-19.2 0-26.88 13.824-43.008t40.192-16.128 40.448 16.128 13.568 43.008q0 7.936-1.792 19.2-3.584 22.784-8.192 33.792-1.536 3.584-3.84 7.936t-4.096 8.448-2.816 9.472q-2.816 13.056-2.816 18.688 0 4.608 4.352 9.728 7.936 9.216 24.832 16.64t32 12.032 28.416 13.568 16.384 21.76q0.512 2.048 0.512 9.472z"></path>
</svg>
