<?xml version="1.0" encoding="utf-8"?>
<!-- Generated by IcoMoon.io -->
<!DOCTYPE svg PUBLIC "-//W3C//DTD SVG 1.1//EN" "http://www.w3.org/Graphics/SVG/1.1/DTD/svg11.dtd">
<svg version="1.1" xmlns="http://www.w3.org/2000/svg" xmlns:xlink="http://www.w3.org/1999/xlink" width="1280" height="256" viewBox="0 0 1280 256">
<path fill="rgb(0, 0, 0)" d="M73.984 209.92c0 0 0 0 0 0h-33.024v-209.92h-40.96v212.736c0 33.536 2.304 43.264 27.904 43.264h59.136c25.6 0 27.904-9.728 27.904-43.264v-212.736h-40.96v209.92zM686.336 107.52h-38.4v-61.696h38.4v61.696zM700.416 146.688c24.32 0 24.576-12.544 24.576-39.168v-61.44c0-37.376-2.816-46.080-24.576-46.080h-92.928v256h40.448v-102.4l47.616 102.4h44.032l-50.688-109.312h11.52zM1280 85.248v-39.168c0-32.768-1.792-46.080-24.064-46.080h-68.608c-24.32 0-24.064 17.664-24.064 44.288v59.392c0 19.968 13.056 25.856 27.904 32 16.128 6.4 32.256 13.056 48.384 19.712v54.528h-35.328v-39.168h-40.96v39.168c0 30.976 0 46.080 23.296 46.080h69.888c24.064 0.256 23.552-19.2 23.552-46.080v-66.048c0-20.992-16.896-25.856-32-32-14.592-5.888-29.184-12.032-43.776-17.92v-47.872h34.816v39.168h40.96zM836.096 0h-67.584c-23.808 0-23.552 17.664-23.552 44.288v59.392c0 19.968 12.8 25.856 27.648 32 15.616 6.4 31.488 13.056 47.36 19.712v54.528h-34.816v-39.168h-40.192v39.168c0 30.976 0 46.080 23.040 46.080h68.608c23.552 0 23.040-19.2 23.040-46.080v-66.048c0-20.992-16.64-25.856-31.488-32-14.336-6.144-28.672-12.032-43.008-17.92v-47.872h34.304v39.168h40.192v-39.168c0-32.768-1.792-46.080-23.552-46.080zM1040.896 0h-112.128v46.080h36.864v209.92h40.704v-209.92h34.304v-46.080h0.256zM878.336 256h40.96v-256h-40.96v256zM523.776 140.8h41.984v-39.168h-41.984v-55.552h66.816v-46.080h-107.776v256h110.848v-46.080h-69.888v-69.12zM1078.528 164.352l12.032-87.808 12.288 87.808h-24.32zM1064.192 0l-41.472 256h40.96l7.424-45.568h39.168l7.424 45.568h40.96l-41.472-256h-52.992zM404.224 179.2l-27.136-179.2h-40.96l41.472 256h53.248l41.216-256h-40.96l-26.88 179.2zM218.88 132.864l-35.328-132.864h-47.104v256h40.96v-131.584l37.888 131.584h44.544v-256h-40.96v132.864zM284.416 256h40.96v-256h-40.96v256z"></path>
</svg>
