<?xml version="1.0" encoding="utf-8"?>
<!-- Generated by IcoMoon.io -->
<!DOCTYPE svg PUBLIC "-//W3C//DTD SVG 1.1//EN" "http://www.w3.org/Graphics/SVG/1.1/DTD/svg11.dtd">
<svg version="1.1" xmlns="http://www.w3.org/2000/svg" xmlns:xlink="http://www.w3.org/1999/xlink" width="164" height="256" viewBox="0 0 164 256">
<path fill="rgb(0, 0, 0)" d="M150.784 109.824q5.888 0 9.728 3.84t4.096 9.728v82.432q0 5.632-4.096 9.472t-9.728 4.096h-136.96q-5.888 0-9.728-4.096t-4.096-9.472v-82.432q0-5.632 4.096-9.728t9.728-3.84h4.352v-45.824q0-26.368 18.944-45.312t45.056-18.688 45.312 18.688 18.688 45.312q0 3.84-2.56 6.4t-6.4 2.816h-9.216q-3.584 0-6.4-2.816t-2.816-6.4q0-15.104-10.752-25.856t-25.856-10.752-25.856 10.752-10.496 25.856v45.824h104.96z"></path>
</svg>
