<?xml version="1.0" encoding="utf-8"?>
<!-- Generated by IcoMoon.io -->
<!DOCTYPE svg PUBLIC "-//W3C//DTD SVG 1.1//EN" "http://www.w3.org/Graphics/SVG/1.1/DTD/svg11.dtd">
<svg version="1.1" xmlns="http://www.w3.org/2000/svg" xmlns:xlink="http://www.w3.org/1999/xlink" width="256" height="256" viewBox="0 0 256 256">
<path fill="rgb(0, 0, 0)" d="M49.408 0c-27.392 0-49.408 22.016-49.408 49.408v157.184c0 27.392 22.016 49.408 49.408 49.408h157.184c27.392 0 49.408-22.016 49.408-49.408v-157.184c0-27.392-22.016-49.408-49.408-49.408h-157.184zM181.76 50.432c0.768 0 1.536 0 2.304 0 18.944 0.512 27.648 12.8 26.624 36.608-0.768 17.664-13.312 41.984-37.376 72.96-24.832 32.256-45.824 48.384-63.232 48.384-10.496 0-19.712-9.728-27.136-29.44l-14.592-54.272c-5.632-19.712-11.52-29.44-17.664-29.44-1.536 0-6.144 2.816-14.336 8.704l-8.704-11.264c8.96-7.936 17.92-15.872 26.624-23.808 12.032-10.24 21.248-15.872 27.136-16.384 14.336-1.28 23.040 8.448 26.368 29.184 3.584 22.528 5.888 36.352 7.424 41.728 4.096 18.688 8.448 27.904 13.312 27.904 3.84 0 9.728-5.888 17.408-17.92s11.776-21.248 12.288-27.392c1.024-10.496-3.072-15.616-12.288-15.616-4.352 0-8.96 0.768-13.568 2.816 8.704-28.416 25.088-42.752 49.408-42.752z"></path>
</svg>
