<?xml version="1.0" encoding="utf-8"?>
<!-- Generated by IcoMoon.io -->
<!DOCTYPE svg PUBLIC "-//W3C//DTD SVG 1.1//EN" "http://www.w3.org/Graphics/SVG/1.1/DTD/svg11.dtd">
<svg version="1.1" xmlns="http://www.w3.org/2000/svg" xmlns:xlink="http://www.w3.org/1999/xlink" width="256" height="256" viewBox="0 0 256 256">
<path fill="rgb(0, 0, 0)" d="M126.976 0c-45.056 0-84.736 23.040-107.776 57.856-4.608 6.912-8.448 14.080-11.776 21.76-3.072 7.424-5.376 15.36-7.168 23.552 0 0 0 0.256 0 0.256v0 0c0 0.256 0 0.512 0 0.512 0 1.792 1.28 3.072 2.816 3.072h25.856c1.28 0 2.56-1.024 2.816-2.304 7.424-28.928 27.904-52.736 54.784-64.768 5.12-2.56 10.496-4.352 16.128-5.888 7.936-1.792 15.872-2.816 24.32-2.816v0 0 0c6.4 0 12.8 0.512 18.944 1.792 1.28 0.256 2.56 0.512 3.584 0.768 1.536 0.256 2.56 0.768 3.584 1.024v0c1.28 0.256 2.816-0.256 3.328-1.536l13.056-22.272c0 0 0.256-0.256 0.256-0.512 0.512-1.536-0.256-3.328-1.792-3.84-5.632-1.792-11.008-3.328-16.64-4.352-1.28-0.256-2.304-0.256-3.328-0.512-6.912-1.28-13.824-1.792-20.992-1.792v0 0zM210.688 29.184c-1.28 0-2.304 0.512-2.816 1.536l-12.8 22.272c-0.768 1.024-0.512 2.56 0.512 3.584 7.424 7.424 13.824 16.128 18.688 25.856 1.024 1.792 1.792 3.584 2.816 5.632 4.864 11.776 7.68 24.832 7.68 38.656v0 0c0 19.712-5.632 38.144-15.872 53.504-1.792 2.816-3.84 5.888-6.144 8.704-2.304 2.56-4.608 5.12-7.168 7.68v0 0 0c-1.024 1.024-1.28 2.56-0.512 3.584l12.8 22.272c0 0.256 0.256 0.512 0.512 0.768 1.024 1.28 2.816 1.28 4.096 0.256 14.848-13.312 26.624-29.952 34.304-48.64 1.536-3.584 2.816-7.424 3.84-11.264 3.584-11.776 5.376-24.064 5.376-36.864 0-27.648-8.704-53.504-23.552-74.496-2.816-4.096-5.888-7.936-9.472-11.776-3.328-3.584-6.656-7.168-10.496-10.496v0c-0.256-0.256-0.256-0.256-0.512-0.256-0.512-0.256-1.024-0.512-1.28-0.512zM3.072 148.992v0c-0.256 0-0.512 0-0.768 0-1.536 0.256-2.56 2.048-2.304 3.584 8.704 42.496 38.144 77.312 77.312 93.696 7.68 3.072 15.616 5.376 23.808 7.168 8.192 1.536 16.896 2.56 25.6 2.56v0 0c10.24 0 20.224-1.28 29.952-3.584 1.792-0.256 3.584-0.768 5.632-1.28 1.536-0.512 3.328-1.28 5.12-1.792 0.256 0 0.512-0.256 0.768-0.256 1.536-0.768 2.048-2.56 1.024-4.096l-12.8-22.272c-0.768-1.28-2.048-1.792-3.328-1.536-3.584 1.024-7.168 1.792-10.752 2.304-0.768 0.256-1.536 0.256-2.048 0.512-4.608 0.512-8.96 0.768-13.568 0.768v0 0c-32.768 0-61.952-16.128-79.616-40.96-0.256 0-0.256 0-0.256 0-3.328-4.864-6.4-10.24-8.96-15.616s-4.608-11.008-6.144-16.64c-0.256-1.536-1.536-2.56-2.816-2.56h-25.856z"></path>
</svg>
