<?xml version="1.0" encoding="utf-8"?>
<!-- Generated by IcoMoon.io -->
<!DOCTYPE svg PUBLIC "-//W3C//DTD SVG 1.1//EN" "http://www.w3.org/Graphics/SVG/1.1/DTD/svg11.dtd">
<svg version="1.1" xmlns="http://www.w3.org/2000/svg" xmlns:xlink="http://www.w3.org/1999/xlink" width="274" height="256" viewBox="0 0 274 256">
<path fill="rgb(0, 0, 0)" d="M64 64q0-7.68-5.376-13.056t-12.8-5.12-13.056 5.12-5.376 13.056 5.376 12.8 13.056 5.376 12.8-5.376 5.376-12.8zM216.32 146.176q0 7.68-5.12 13.056l-70.144 70.144q-5.632 5.376-13.056 5.376-7.68 0-12.8-5.376l-102.144-102.144q-5.376-5.376-9.216-14.592t-3.84-16.64v-59.392q0-7.424 5.376-12.8t12.8-5.632h59.648q7.424 0 16.64 3.84t14.592 9.216l102.144 102.144q5.12 5.376 5.12 12.8zM271.36 146.176q0 7.68-5.376 13.056l-70.144 70.144q-5.632 5.376-13.056 5.376-5.12 0-8.448-2.048t-7.424-6.4l67.072-67.072q5.376-5.376 5.376-13.056 0-7.424-5.376-12.8l-102.144-102.144q-5.376-5.376-14.592-9.216t-16.64-3.84h32q7.424 0 16.64 3.84t14.592 9.216l102.144 102.144q5.376 5.376 5.376 12.8z"></path>
</svg>
