<?xml version="1.0" encoding="utf-8"?>
<!-- Generated by IcoMoon.io -->
<!DOCTYPE svg PUBLIC "-//W3C//DTD SVG 1.1//EN" "http://www.w3.org/Graphics/SVG/1.1/DTD/svg11.dtd">
<svg version="1.1" xmlns="http://www.w3.org/2000/svg" xmlns:xlink="http://www.w3.org/1999/xlink" width="315" height="256" viewBox="0 0 315 256">
<path fill="rgb(0, 0, 0)" d="M0 227.072q7.68 0.768 15.36 0.768 45.056 0 80.384-27.648-20.992-0.256-37.632-12.8t-22.784-32q5.12 1.024 12.032 1.024 8.96 0 17.152-2.304-22.528-4.352-37.12-22.272t-14.848-40.96v-0.768q13.568 7.68 29.44 7.936-13.312-8.704-20.992-23.040t-7.936-30.72q0-17.408 8.96-32.512 24.064 29.952 58.88 47.616t74.24 19.968q-1.792-8.448-1.792-14.848 0-26.624 18.944-45.568t45.824-18.944q27.904 0 47.104 20.48 22.272-4.608 40.96-15.872-7.168 23.296-28.16 35.84 18.688-2.304 36.864-10.24-12.288 19.2-32 33.536v8.448q0 25.856-7.424 51.712t-23.040 49.664-37.12 42.24-51.456 29.44-64.768 10.752q-53.504 0-99.072-28.928z"></path>
</svg>
