<?xml version="1.0" encoding="utf-8"?>
<!-- Generated by IcoMoon.io -->
<!DOCTYPE svg PUBLIC "-//W3C//DTD SVG 1.1//EN" "http://www.w3.org/Graphics/SVG/1.1/DTD/svg11.dtd">
<svg version="1.1" xmlns="http://www.w3.org/2000/svg" xmlns:xlink="http://www.w3.org/1999/xlink" width="233" height="256" viewBox="0 0 233 256">
<path fill="rgb(0, 0, 0)" d="M84.781 207.445v-116.5q0-2.371-1.482-3.854t-3.854-1.482h-10.672q-2.371 0-3.854 1.482t-1.482 3.854v116.5q0 2.371 1.482 3.854t3.854 1.482h10.672q2.371 0 3.854-1.482t1.482-3.854zM127.172 207.445v-116.5q0-2.371-1.482-3.854t-3.854-1.482h-10.672q-2.371 0-3.854 1.482t-1.482 3.854v116.5q0 2.371 1.482 3.854t3.854 1.482h10.672q2.371 0 3.854-1.482t1.482-3.854zM169.266 207.445v-116.5q0-2.371-1.482-3.854t-3.557-1.482h-10.672q-2.371 0-3.854 1.482t-1.482 3.854v116.5q0 2.371 1.482 3.854t3.854 1.482h10.672q2.075 0 3.557-1.482t1.482-3.854zM79.445 43.219h74.11l-8.004-19.268q-1.186-1.482-2.668-1.779h-52.469q-1.779 0.297-2.965 1.779zM233 48.555v10.672q0 2.371-1.482 3.854t-3.854 1.482h-16.008v156.815q0 13.636-7.708 23.715t-18.675 10.079h-137.547q-10.968 0-18.675-9.782t-8.004-23.418v-157.409h-15.711q-2.372 0-3.854-1.482t-1.482-3.854v-10.672q0-2.371 1.482-3.854t3.854-1.482h50.987l11.561-27.569q2.668-6.225 9.189-10.375t13.043-4.447h52.766q6.522 0 13.043 4.447t8.893 10.375l11.561 27.569h51.284q2.371 0 3.854 1.482t1.482 3.854z"></path>
</svg>
