<?xml version="1.0" encoding="utf-8"?>
<!-- Generated by IcoMoon.io -->
<!DOCTYPE svg PUBLIC "-//W3C//DTD SVG 1.1//EN" "http://www.w3.org/Graphics/SVG/1.1/DTD/svg11.dtd">
<svg version="1.1" xmlns="http://www.w3.org/2000/svg" xmlns:xlink="http://www.w3.org/1999/xlink" width="29" height="32" viewBox="0 0 29 32">
<path fill="rgb(0, 0, 0)" d="M0 25.12q0.256-2.176 2.144-4.064l12.256-12.256q3.744-3.68 6.752-1.056 2.688 2.752-1.152 6.688l-11.296 11.232-2.112-2.24 11.168-11.168q0.064 0 0.256-0.192l0.256-0.256t0.224-0.288 0.192-0.32 0.192-0.288 0.128-0.352v-0.32t-0.064-0.384q-0.608-0.544-2.368 1.184l-12.192 12.192q-1.184 1.12-1.312 2.208-0.128 1.248 1.12 2.496 1.312 1.056 2.24 0.896t2.272-1.472q2.624-2.56 6.976-6.88t6.208-6.24q0.064-0.064 0.576-0.544t0.544-0.544 0.48-0.512 0.48-0.544 0.384-0.544 0.416-0.608 0.352-0.64 0.32-0.8q0.512-1.824-1.056-3.936t-3.68-2.4q-2.176-0.224-4.864 2.336l-13.376 13.376-2.208-2.144 13.376-13.44q3.136-3.040 6.368-3.2t6.080 2.656q3.36 3.424 2.368 7.552-0.608 2.368-3.008 4.832-2.752 2.656-7.872 7.808l-6.688 6.688q-2.24 2.24-4.8 2.304-2.176 0-4-1.824-2.24-2.24-2.048-4.992z"></path>
</svg>
