<?xml version="1.0" encoding="utf-8"?>
<!-- Generated by IcoMoon.io -->
<!DOCTYPE svg PUBLIC "-//W3C//DTD SVG 1.1//EN" "http://www.w3.org/Graphics/SVG/1.1/DTD/svg11.dtd">
<svg version="1.1" xmlns="http://www.w3.org/2000/svg" xmlns:xlink="http://www.w3.org/1999/xlink" width="27" height="32" viewBox="0 0 27 32">
<path fill="rgb(0, 0, 0)" d="M26.208 8.512q0.256 0.224 0.512 0.64h-8.448v-8.448q0.416 0.256 0.672 0.512zM17.728 11.424h9.696v18.848q0 0.736-0.48 1.216t-1.216 0.512h-24q-0.736 0-1.216-0.512t-0.512-1.216v-28.544q0-0.736 0.512-1.216t1.216-0.512h14.272v9.728q0 0.704 0.512 1.216t1.216 0.48zM20.576 24.576v-1.152q0-0.256-0.16-0.416t-0.416-0.16h-12.576q-0.256 0-0.416 0.16t-0.16 0.416v1.152q0 0.256 0.16 0.416t0.416 0.16h12.576q0.256 0 0.416-0.16t0.16-0.416zM20.576 20v-1.152q0-0.224-0.16-0.384t-0.416-0.16h-12.576q-0.256 0-0.416 0.16t-0.16 0.384v1.152q0 0.256 0.16 0.416t0.416 0.16h12.576q0.256 0 0.416-0.16t0.16-0.416zM20.576 15.424v-1.12q0-0.256-0.16-0.416t-0.416-0.16h-12.576q-0.256 0-0.416 0.16t-0.16 0.416v1.12q0 0.256 0.16 0.416t0.416 0.16h12.576q0.256 0 0.416-0.16t0.16-0.416z"></path>
</svg>
