<?xml version="1.0" encoding="utf-8"?>
<!-- Generated by IcoMoon.io -->
<!DOCTYPE svg PUBLIC "-//W3C//DTD SVG 1.1//EN" "http://www.w3.org/Graphics/SVG/1.1/DTD/svg11.dtd">
<svg version="1.1" xmlns="http://www.w3.org/2000/svg" xmlns:xlink="http://www.w3.org/1999/xlink" width="32" height="32" viewBox="0 0 32 32">
<path fill="rgb(0, 0, 0)" d="M5.856 0c-3.264 0-5.856 2.592-5.856 5.856v20.288c0 3.264 2.592 5.856 5.856 5.856h11.008v-12.512h-3.328v-4.512h3.328v-3.84c0-3.008 1.952-5.792 6.432-5.792 1.824 0 3.2 0.16 3.2 0.16l-0.128 4.224s-1.376-0.032-2.88-0.032c-1.6 0-1.856 0.768-1.856 1.984v3.296h4.864l-0.192 4.512h-4.672v12.512h4.512c3.264 0 5.856-2.592 5.856-5.856v-20.288c0-3.264-2.592-5.856-5.856-5.856h-20.288z"></path>
</svg>
