<?xml version="1.0" encoding="utf-8"?>
<!-- Generated by IcoMoon.io -->
<!DOCTYPE svg PUBLIC "-//W3C//DTD SVG 1.1//EN" "http://www.w3.org/Graphics/SVG/1.1/DTD/svg11.dtd">
<svg version="1.1" xmlns="http://www.w3.org/2000/svg" xmlns:xlink="http://www.w3.org/1999/xlink" width="32" height="32" viewBox="0 0 32 32">
<path fill="rgb(0, 0, 0)" d="M2.944 0c-1.632 0-2.944 0.832-2.944 2.944v2.528c0.128-0.096 0.256-0.224 0.384-0.352 2.656-2.176 5.536-2.56 8-2.592h9.824l-2.624 2.112h-2.848c1.152 0.992 2.848 2.752 2.848 5.888 0 3.456-1.824 5.088-3.776 6.624-0.608 0.608-1.312 1.28-1.312 2.304s0.704 1.568 1.216 2.016l1.664 1.28c2.048 1.728 4.736 3.744 4.736 6.944 0 0.864-0.096 1.664-0.384 2.304h11.328c1.632 0 2.944-0.896 2.944-2.528v-18.56h-5.888v5.92h-2.528v-5.92h-5.888v-2.496h5.888v-5.888h2.528v5.888h5.888v-5.472c0-2.112-1.312-2.944-2.944-2.944h-26.112zM32 8.416v2.496h0.032v-2.496h-0.032zM5.984 4.096c-1.216 0-2.496 0.608-3.264 1.536-0.768 0.992-0.896 2.24-0.896 3.456 0 3.136 1.632 7.744 5.632 7.744 1.152 0 2.368-0.288 3.136-1.152 0.864-0.992 1.184-2.304 1.184-2.976 0-3.392-1.92-8.608-5.792-8.608zM0 16.832v8.288c2.112-1.696 5.76-1.408 7.52-1.504-0.64-0.864-1.376-1.728-1.376-3.168 0-0.8 0.224-1.28 0.448-1.824-0.512 0.032-1.024 0.096-1.472 0.096-2.112 0-3.84-0.832-5.12-1.888zM8.032 24.896c-0.416 0-2.912 0.096-4.864 0.768-0.672 0.256-2.208 0.832-3.168 2.112v1.696c0 1.632 1.312 2.528 2.944 2.528h12.064c0.064-0.224 0.192-0.384 0.192-0.832-0.032-2.4-2.56-3.68-6.080-6.208-0.384-0.064-0.608-0.064-1.088-0.064z"></path>
</svg>
