<?xml version="1.0" encoding="utf-8"?>
<!-- Generated by IcoMoon.io -->
<!DOCTYPE svg PUBLIC "-//W3C//DTD SVG 1.1//EN" "http://www.w3.org/Graphics/SVG/1.1/DTD/svg11.dtd">
<svg version="1.1" xmlns="http://www.w3.org/2000/svg" xmlns:xlink="http://www.w3.org/1999/xlink" width="28" height="32" viewBox="0 0 28 32">
<path fill="rgb(0, 0, 0)" d="M0.032 17.312q-0.064-0.384 0.224-0.704t0.704-0.352l2.88-0.512q0.448-0.064 0.832 0.16t0.416 0.64-0.224 0.736-0.768 0.416l-2.816 0.416q-0.448 0.064-0.8-0.16t-0.448-0.64zM0.096 9.28q-0.192-0.416 0-0.768t0.608-0.512 0.832 0.128l2.624 1.12q0.448 0.192 0.608 0.576t0 0.736-0.576 0.512-0.832 0l-2.624-1.248q-0.448-0.128-0.64-0.544zM5.216 2.656q0.064-0.416 0.448-0.672 0.32-0.16 0.704-0.064t0.672 0.512l1.568 2.432q0.224 0.384 0.16 0.832t-0.352 0.608-0.736 0.096-0.64-0.48l-1.632-2.432q-0.256-0.416-0.192-0.832zM7.040 10.368q0.544-1.248 1.568-2.112t2.4-1.312 3.008-0.448h0.128q1.632 0 3.008 0.448t2.4 1.312 1.6 2.112q1.376 3.328-0.48 7.264-0.704 1.376-1.504 2.944-0.448 0.8-0.8 2.336t-0.512 1.952q-0.128 0.384-0.512 0.448h-6.496q-0.384-0.064-0.576-0.448-0.928-3.552-1.248-4.288-0.8-1.568-1.504-2.944-1.856-4.192-0.48-7.264zM10.208 30.304q0-0.256 0.16-0.384t0.416-0.16h6.688q0.192 0 0.352 0.16t0.16 0.384v1.12q0 0.256-0.16 0.416t-0.352 0.16h-6.688q-0.576 0-0.576-0.576v-1.12zM10.208 28.128v-1.12q0-0.576 0.576-0.576h6.688q0.192 0 0.352 0.16t0.16 0.416v1.12q0 0.256-0.16 0.416t-0.352 0.128h-6.688q-0.256 0-0.416-0.128t-0.16-0.416zM13.216 4v-2.88q0-0.512 0.256-0.8t0.672-0.32q0.384 0 0.672 0.32t0.288 0.8v2.88q0 0.448-0.288 0.736t-0.672 0.32q-0.416 0-0.672-0.32t-0.256-0.736zM19.392 5.696q-0.032-0.448 0.192-0.832l1.568-2.432q0.32-0.384 0.704-0.512t0.736 0.064q0.32 0.256 0.384 0.672t-0.192 0.832l-1.568 2.432q-0.32 0.384-0.672 0.48t-0.736-0.096-0.416-0.608zM23.168 16.544q0.064-0.416 0.384-0.64t0.8-0.16l2.88 0.512q0.416 0.064 0.704 0.384t0.224 0.672q-0.064 0.448-0.416 0.672t-0.832 0.128l-2.88-0.416q-0.448-0.064-0.704-0.416t-0.16-0.736zM23.424 10.56q-0.128-0.384 0.032-0.736t0.576-0.576l2.688-1.12q0.384-0.256 0.768-0.128t0.608 0.512 0 0.768-0.64 0.544l-2.624 1.248q-0.416 0.128-0.832 0t-0.576-0.512z"></path>
</svg>
