<?xml version="1.0" encoding="utf-8"?>
<!-- Generated by IcoMoon.io -->
<!DOCTYPE svg PUBLIC "-//W3C//DTD SVG 1.1//EN" "http://www.w3.org/Graphics/SVG/1.1/DTD/svg11.dtd">
<svg version="1.1" xmlns="http://www.w3.org/2000/svg" xmlns:xlink="http://www.w3.org/1999/xlink" width="32" height="32" viewBox="0 0 32 32">
<path fill="rgb(0, 0, 0)" d="M32 8.544q0 3.584-2.496 6.016l-5.6 5.632q-2.496 2.496-6.048 2.496-3.104 0-5.472-2.016l3.68-3.68q0.832 0.544 1.792 0.544 1.408 0 2.4-0.992l5.6-5.632q0.992-0.928 0.992-2.368 0-1.408-0.96-2.4t-2.4-0.96q-0.8 0-1.568 0.384t-1.056 1.088h-7.616l4.224-4.128q2.56-2.496 6.016-2.496 3.52 0 6.016 2.496t2.496 6.016zM19.616 11.392l-3.68 3.68q-0.832-0.544-1.792-0.544-1.408 0-2.4 0.992l-5.6 5.632q-0.992 0.928-0.992 2.368 0 1.408 0.992 2.368t2.368 0.992q0.8 0 1.6-0.384t1.024-1.088h7.616l-4.224 4.128q-2.56 2.496-6.016 2.496-3.52 0-6.016-2.496t-2.496-6.016q0-3.584 2.496-6.016l5.6-5.632q2.496-2.496 6.048-2.496 3.104 0 5.472 2.016z"></path>
</svg>
