<?xml version="1.0" encoding="utf-8"?>
<!-- Generated by IcoMoon.io -->
<!DOCTYPE svg PUBLIC "-//W3C//DTD SVG 1.1//EN" "http://www.w3.org/Graphics/SVG/1.1/DTD/svg11.dtd">
<svg version="1.1" xmlns="http://www.w3.org/2000/svg" xmlns:xlink="http://www.w3.org/1999/xlink" width="37" height="32" viewBox="0 0 37 32">
<path fill="rgb(0, 0, 0)" d="M18.272 9.152h-6.848v6.848h6.848v-6.848zM20.576 20.576v2.272h-11.424v-2.272h11.424zM20.576 6.848v11.424h-11.424v-11.424h11.424zM32 20.576v2.272h-9.152v-2.272h9.152zM32 16v2.272h-9.152v-2.272h9.152zM32 11.424v2.304h-9.152v-2.304h9.152zM32 6.848v2.304h-9.152v-2.304h9.152zM4.576 24v-17.152h-2.304v17.152q0 0.448 0.352 0.8t0.8 0.352 0.8-0.352 0.352-0.8zM34.272 24v-19.424h-27.424v19.424q0 0.576-0.192 1.152h26.496q0.448 0 0.8-0.352t0.32-0.8zM36.576 2.272v21.728q0 1.44-0.992 2.432t-2.432 0.992h-29.728q-1.408 0-2.432-0.992t-0.992-2.432v-19.424h4.576v-2.304h32z"></path>
</svg>
