<?xml version="1.0" encoding="utf-8"?>
<!-- Generated by IcoMoon.io -->
<!DOCTYPE svg PUBLIC "-//W3C//DTD SVG 1.1//EN" "http://www.w3.org/Graphics/SVG/1.1/DTD/svg11.dtd">
<svg version="1.1" xmlns="http://www.w3.org/2000/svg" xmlns:xlink="http://www.w3.org/1999/xlink" width="30" height="32" viewBox="0 0 30 32">
<path fill="rgb(0, 0, 0)" d="M12.8 4c-8 0-12.8 6.4-12.8 9.6s1.6 5.6 4.8 5.6 4.8 0.8 4.8 3.2c0 3.2 2.4 5.6 5.6 5.6 10.4 0 15.2-5.6 15.2-11.2 0-9.6-8-12.8-17.6-12.8zM10.816 7.2c1.088 0 1.984 0.896 1.984 1.984 0 1.12-0.896 2.016-1.984 2.016-1.12 0-2.016-0.896-2.016-2.016 0-1.088 0.896-1.984 2.016-1.984zM17.216 7.2c1.088 0 1.984 0.896 1.984 1.984 0 1.12-0.896 2.016-1.984 2.016-1.12 0-2.016-0.896-2.016-2.016 0-1.088 0.896-1.984 2.016-1.984zM23.616 10.4c1.088 0 1.984 0.896 1.984 1.984 0 1.12-0.896 2.016-1.984 2.016-1.12 0-2.016-0.896-2.016-2.016 0-1.088 0.896-1.984 2.016-1.984zM5.216 12c1.088 0 1.984 0.896 1.984 1.984 0 1.12-0.896 2.016-1.984 2.016-1.12 0-2.016-0.896-2.016-2.016 0-1.088 0.896-1.984 2.016-1.984zM15.2 20c1.312 0 2.4 1.088 2.4 2.4s-1.088 2.4-2.4 2.4-2.4-1.088-2.4-2.4 1.088-2.4 2.4-2.4z"></path>
</svg>
