<?xml version="1.0" encoding="utf-8"?>
<!-- Generated by IcoMoon.io -->
<!DOCTYPE svg PUBLIC "-//W3C//DTD SVG 1.1//EN" "http://www.w3.org/Graphics/SVG/1.1/DTD/svg11.dtd">
<svg version="1.1" xmlns="http://www.w3.org/2000/svg" xmlns:xlink="http://www.w3.org/1999/xlink" width="32" height="32" viewBox="0 0 32 32">
<path fill="rgb(0, 0, 0)" d="M31.488 0.192q0.608 0.448 0.48 1.152l-4.544 27.424q-0.096 0.512-0.576 0.8-0.256 0.16-0.576 0.16-0.192 0-0.416-0.096l-8.096-3.296-4.32 5.248q-0.32 0.416-0.864 0.416-0.224 0-0.384-0.064-0.352-0.128-0.544-0.416t-0.224-0.672v-6.208l15.424-18.912-19.072 16.512-7.072-2.912q-0.64-0.224-0.704-0.96-0.032-0.736 0.576-1.056l29.696-17.152q0.288-0.16 0.576-0.16 0.352 0 0.64 0.192z"></path>
</svg>
