<?xml version="1.0" encoding="utf-8"?>
<!-- Generated by IcoMoon.io -->
<!DOCTYPE svg PUBLIC "-//W3C//DTD SVG 1.1//EN" "http://www.w3.org/Graphics/SVG/1.1/DTD/svg11.dtd">
<svg version="1.1" xmlns="http://www.w3.org/2000/svg" xmlns:xlink="http://www.w3.org/1999/xlink" width="227" height="256" viewBox="0 0 227 256">
<path fill="rgb(0, 0, 0)" d="M0 130.56q0-50.432 33.28-85.504 34.816-36.864 89.6-36.864 44.8 0 73.728 25.088 30.976 26.88 30.976 71.168 0 34.56-19.712 59.648-19.456 24.832-44.544 24.832-12.8 0-19.968-7.936t-7.168-16.64q0-0.256 0.256-1.024t0-1.28q0-0.256 0.256-1.28t0-1.536q-5.632 11.52-12.032 17.664-11.776 11.776-28.672 11.776-17.152 0-28.416-13.312-11.52-13.312-11.52-37.12 0-27.904 17.408-51.968 17.664-24.32 42.496-24.32 14.592 0 23.296 8.704 6.4 7.168 8.192 15.872l5.12-19.2h26.624l-18.176 66.56q-0.768 3.072-1.792 7.168t-1.28 4.864q-0.768 3.584-0.768 6.656 0 4.608 2.816 8.704t8.96 4.096q12.288 0 24.576-17.152 12.288-17.664 12.288-45.824 0-42.24-33.536-60.672-20.48-11.52-46.848-11.52-48.128 0-77.312 32-26.112 28.416-26.112 69.12 0 45.056 30.72 71.168 27.392 23.040 66.56 23.040 26.88 0 49.92-10.752 12.8-5.632 26.368-16.128l3.328-2.56q1.024-0.768 2.56-1.28t3.584-0.768 3.84 1.024 3.328 4.096q1.536 4.352 0.768 7.424t-2.048 4.864l-1.792 1.792q-19.712 16.896-43.264 25.856t-48.384 8.96q-58.624 0-90.88-39.68-26.624-32.768-26.624-77.824zM87.040 141.056q0 11.264 4.608 18.176t13.312 6.912q15.104 0 24.832-24.832 9.472-25.088 9.472-39.168 0-8.192-4.352-13.824-4.352-5.376-12.032-5.376-14.848 0-25.344 19.712t-10.496 38.4z"></path>
</svg>
