<?xml version="1.0" encoding="utf-8"?>
<!-- Generated by IcoMoon.io -->
<!DOCTYPE svg PUBLIC "-//W3C//DTD SVG 1.1//EN" "http://www.w3.org/Graphics/SVG/1.1/DTD/svg11.dtd">
<svg version="1.1" xmlns="http://www.w3.org/2000/svg" xmlns:xlink="http://www.w3.org/1999/xlink" width="274" height="256" viewBox="0 0 274 256">
<path fill="rgb(0, 0, 0)" d="M88.064 199.936l-7.168 7.168q-1.28 1.28-3.072 1.28t-3.328-1.28l-66.56-66.56q-1.536-1.536-1.536-3.328t1.536-3.328l66.56-66.56q1.28-1.536 3.328-1.536t3.072 1.536l7.168 7.168q1.536 1.28 1.536 3.328t-1.536 3.072l-56.064 56.32 56.064 56.064q1.536 1.536 1.536 3.328t-1.536 3.328zM172.544 47.36l-53.248 184.576q-0.512 1.792-2.304 2.816t-3.328 0.256l-8.704-2.304q-2.048-0.768-2.816-2.304t-0.512-3.584l53.248-184.32q0.768-2.048 2.304-2.816t3.328-0.512l8.96 2.56q1.792 0.512 2.816 2.304t0.256 3.328zM266.496 140.544l-66.56 66.56q-1.536 1.28-3.328 1.28t-3.328-1.28l-7.168-7.168q-1.28-1.536-1.28-3.328t1.28-3.328l56.064-56.064-56.064-56.32q-1.28-1.28-1.28-3.072t1.28-3.328l7.168-7.168q1.536-1.536 3.328-1.536t3.328 1.536l66.56 66.56q1.28 1.28 1.28 3.328t-1.28 3.328z"></path>
</svg>
