<?xml version="1.0" encoding="utf-8"?>
<!-- Generated by IcoMoon.io -->
<!DOCTYPE svg PUBLIC "-//W3C//DTD SVG 1.1//EN" "http://www.w3.org/Graphics/SVG/1.1/DTD/svg11.dtd">
<svg version="1.1" xmlns="http://www.w3.org/2000/svg" xmlns:xlink="http://www.w3.org/1999/xlink" width="230" height="256" viewBox="0 0 230 256">
<path fill="rgb(0, 0, 0)" d="M0 200.96q2.048-17.408 17.152-32.512l98.048-98.048q29.952-29.44 54.016-8.448 21.504 22.016-9.216 53.504l-90.368 89.856-16.896-17.92 89.344-89.344q0.512 0 2.048-1.536l2.048-2.048t1.792-2.304 1.536-2.56 1.536-2.304 1.024-2.816v-2.56t-0.512-3.072q-4.864-4.352-18.944 9.472l-97.536 97.536q-9.472 8.96-10.496 17.664-1.024 9.984 8.96 19.968 10.496 8.448 17.92 7.168t18.176-11.776q20.992-20.48 55.808-55.040t49.664-49.92q0.512-0.512 4.608-4.352t4.352-4.352 3.84-4.096 3.84-4.352 3.072-4.352 3.328-4.864 2.816-5.12 2.56-6.4q4.096-14.592-8.448-31.488t-29.44-19.2q-17.408-1.792-38.912 18.688l-107.008 107.008-17.664-17.152 107.008-107.52q25.088-24.32 50.944-25.6t48.64 21.248q26.88 27.392 18.944 60.416-4.864 18.944-24.064 38.656-22.016 21.248-62.976 62.464l-53.504 53.504q-17.92 17.92-38.4 18.432-17.408 0-32-14.592-17.92-17.92-16.384-39.936z"></path>
</svg>
