<?xml version="1.0" encoding="utf-8"?>
<!-- Generated by IcoMoon.io -->
<!DOCTYPE svg PUBLIC "-//W3C//DTD SVG 1.1//EN" "http://www.w3.org/Graphics/SVG/1.1/DTD/svg11.dtd">
<svg version="1.1" xmlns="http://www.w3.org/2000/svg" xmlns:xlink="http://www.w3.org/1999/xlink" width="238" height="256" viewBox="0 0 238 256">
<path fill="rgb(0, 0, 0)" d="M79.616 182.784h84.992v-84.992zM73.216 176.384l84.992-84.992h-84.992v84.992zM237.824 187.392v27.392q0 2.048-1.28 3.328t-3.328 1.28h-32v32q0 2.048-1.28 3.328t-3.328 1.28h-27.392q-2.048 0-3.328-1.28t-1.28-3.328v-32h-123.392q-2.048 0-3.328-1.28t-1.28-3.328v-123.392h-32q-2.048 0-3.328-1.28t-1.28-3.328v-27.392q0-2.048 1.28-3.328t3.328-1.28h32v-32q0-1.792 1.28-3.072t3.328-1.28h27.392q2.048 0 3.328 1.28t1.28 3.072v32h121.6l35.072-35.328q1.28-1.28 3.328-1.28t3.328 1.28q1.28 1.536 1.28 3.328t-1.28 3.328l-35.328 35.072v121.6h32q2.048 0 3.328 1.28t1.28 3.328z"></path>
</svg>
