<?xml version="1.0" encoding="utf-8"?>
<!-- Generated by IcoMoon.io -->
<!DOCTYPE svg PUBLIC "-//W3C//DTD SVG 1.1//EN" "http://www.w3.org/Graphics/SVG/1.1/DTD/svg11.dtd">
<svg version="1.1" xmlns="http://www.w3.org/2000/svg" xmlns:xlink="http://www.w3.org/1999/xlink" width="220" height="256" viewBox="0 0 220 256">
<path fill="rgb(0, 0, 0)" d="M209.664 68.096q2.048 1.792 4.096 5.12h-67.584v-67.584q3.328 2.048 5.376 4.096zM141.824 91.392h77.568v150.784q0 5.888-3.84 9.728t-9.728 4.096h-192q-5.888 0-9.728-4.096t-4.096-9.728v-228.352q0-5.888 4.096-9.728t9.728-4.096h114.176v77.824q0 5.632 4.096 9.728t9.728 3.84zM164.608 196.608v-9.216q0-2.048-1.28-3.328t-3.328-1.28h-100.608q-2.048 0-3.328 1.28t-1.28 3.328v9.216q0 2.048 1.28 3.328t3.328 1.28h100.608q2.048 0 3.328-1.28t1.28-3.328zM164.608 160v-9.216q0-1.792-1.28-3.072t-3.328-1.28h-100.608q-2.048 0-3.328 1.28t-1.28 3.072v9.216q0 2.048 1.28 3.328t3.328 1.28h100.608q2.048 0 3.328-1.28t1.28-3.328zM164.608 123.392v-8.96q0-2.048-1.28-3.328t-3.328-1.28h-100.608q-2.048 0-3.328 1.28t-1.28 3.328v8.96q0 2.048 1.28 3.328t3.328 1.28h100.608q2.048 0 3.328-1.28t1.28-3.328z"></path>
</svg>
