<?xml version="1.0" encoding="utf-8"?>
<!-- Generated by IcoMoon.io -->
<!DOCTYPE svg PUBLIC "-//W3C//DTD SVG 1.1//EN" "http://www.w3.org/Graphics/SVG/1.1/DTD/svg11.dtd">
<svg version="1.1" xmlns="http://www.w3.org/2000/svg" xmlns:xlink="http://www.w3.org/1999/xlink" width="256" height="256" viewBox="0 0 256 256">
<path fill="rgb(0, 0, 0)" d="M0 147.968v-39.936l38.4-4.096q3.584-11.52 9.728-22.528l-24.576-29.952 27.904-27.904 29.952 24.32q10.496-5.888 22.528-9.472l4.096-38.4h39.936l4.096 38.4q11.52 3.584 22.528 9.472l29.952-24.32 27.904 27.904-24.576 29.952q6.144 11.008 9.728 22.528l38.4 4.096v39.936l-38.4 4.096q-3.584 12.032-9.728 22.528l24.576 29.952-27.904 27.904-29.952-24.576q-11.008 6.144-22.528 9.728l-4.096 38.4h-39.936l-4.096-38.4q-12.032-3.584-22.528-9.728l-29.952 24.576-27.904-27.904 24.576-29.952q-6.144-10.496-9.728-22.528zM90.88 128q0 15.36 10.752 26.112t26.368 10.752 26.368-10.752 10.752-26.112-10.752-26.368-26.368-10.752-26.368 10.752-10.752 26.368z"></path>
</svg>
