<?xml version="1.0" encoding="utf-8"?>
<!-- Generated by IcoMoon.io -->
<!DOCTYPE svg PUBLIC "-//W3C//DTD SVG 1.1//EN" "http://www.w3.org/Graphics/SVG/1.1/DTD/svg11.dtd">
<svg version="1.1" xmlns="http://www.w3.org/2000/svg" xmlns:xlink="http://www.w3.org/1999/xlink" width="265" height="256" viewBox="0 0 265 256">
<path fill="rgb(0, 0, 0)" d="M136.704 256.256c-31.232 0-59.904-11.52-82.176-30.464l-54.528 7.424 20.992-51.968c-7.168-16.128-11.264-34.048-11.264-52.992 0-70.912 56.832-128.256 126.976-128.256 70.4 0 127.232 57.344 127.232 128.256 0 70.656-56.832 128-127.232 128zM206.080 127.744v-0.256c0-37.12-25.856-63.488-70.912-63.488h-48.64v128.256h47.872c45.312 0 71.68-27.392 71.68-64.512v0zM135.68 160.768h-14.080v-65.28h14.080c20.992 0 34.816 12.032 34.816 32.512v0.256c0 20.736-13.824 32.512-34.816 32.512z"></path>
</svg>
