<?xml version="1.0" encoding="utf-8"?>
<!-- Generated by IcoMoon.io -->
<!DOCTYPE svg PUBLIC "-//W3C//DTD SVG 1.1//EN" "http://www.w3.org/Graphics/SVG/1.1/DTD/svg11.dtd">
<svg version="1.1" xmlns="http://www.w3.org/2000/svg" xmlns:xlink="http://www.w3.org/1999/xlink" width="30" height="32" viewBox="0 0 30 32">
<path fill="rgb(0, 0, 0)" d="M9.952 22.848h10.624v-10.624zM9.152 22.048l10.624-10.624h-10.624v10.624zM29.728 23.424v3.424q0 0.256-0.16 0.416t-0.416 0.16h-4v4q0 0.256-0.16 0.416t-0.416 0.16h-3.424q-0.256 0-0.416-0.16t-0.16-0.416v-4h-15.424q-0.256 0-0.416-0.16t-0.16-0.416v-15.424h-4q-0.256 0-0.416-0.16t-0.16-0.416v-3.424q0-0.256 0.16-0.416t0.416-0.16h4v-4q0-0.224 0.16-0.384t0.416-0.16h3.424q0.256 0 0.416 0.16t0.16 0.384v4h15.2l4.384-4.416q0.16-0.16 0.416-0.16t0.416 0.16q0.16 0.192 0.16 0.416t-0.16 0.416l-4.416 4.384v15.2h4q0.256 0 0.416 0.16t0.16 0.416z"></path>
</svg>
