<?xml version="1.0" encoding="utf-8"?>
<!-- Generated by IcoMoon.io -->
<!DOCTYPE svg PUBLIC "-//W3C//DTD SVG 1.1//EN" "http://www.w3.org/Graphics/SVG/1.1/DTD/svg11.dtd">
<svg version="1.1" xmlns="http://www.w3.org/2000/svg" xmlns:xlink="http://www.w3.org/1999/xlink" width="240" height="256" viewBox="0 0 240 256">
<path fill="rgb(0, 0, 0)" d="M0 196.096v-18.688q0-8.448 6.144-14.336t14.592-6.144 14.336 6.144 6.144 14.336v18.688q0 4.352 3.072 7.424t7.68 3.328h135.936q4.608 0 7.68-3.328t3.072-7.424v-18.688q0-8.448 6.144-14.336t14.336-6.144 14.592 6.144 6.144 14.336v18.688q0 21.504-15.104 36.608t-36.864 15.36h-135.936q-21.504 0-36.864-15.36t-15.104-36.608zM39.68 104.192q0-8.448 6.144-14.592 5.888-5.888 14.336-5.888t14.592 5.888l26.88 27.136v-88.064q0-8.448 6.144-14.592t14.336-5.888 14.592 5.888 6.144 14.592v88.064l28.16-28.16q6.144-6.144 14.592-6.144t14.336 6.144q6.144 5.888 6.144 14.336t-6.144 14.592l-63.232 63.232q-6.144 6.4-14.592 6.4-8.192 0-14.336-6.4l-61.952-61.952q-6.144-6.144-6.144-14.592z"></path>
</svg>
