<?xml version="1.0" encoding="utf-8"?>
<!-- Generated by IcoMoon.io -->
<!DOCTYPE svg PUBLIC "-//W3C//DTD SVG 1.1//EN" "http://www.w3.org/Graphics/SVG/1.1/DTD/svg11.dtd">
<svg version="1.1" xmlns="http://www.w3.org/2000/svg" xmlns:xlink="http://www.w3.org/1999/xlink" width="256" height="256" viewBox="0 0 256 256">
<path fill="rgb(0, 0, 0)" d="M256 68.352q0 28.672-19.968 48.128l-44.8 45.056q-19.968 19.968-48.384 19.968-24.832 0-43.776-16.128l29.44-29.44q6.656 4.352 14.336 4.352 11.264 0 19.2-7.936l44.8-45.056q7.936-7.424 7.936-18.944 0-11.264-7.68-19.2t-19.2-7.68q-6.4 0-12.544 3.072t-8.448 8.704h-60.928l33.792-33.024q20.48-19.968 48.128-19.968 28.16 0 48.128 19.968t19.968 48.128zM156.928 91.136l-29.44 29.44q-6.656-4.352-14.336-4.352-11.264 0-19.2 7.936l-44.8 45.056q-7.936 7.424-7.936 18.944 0 11.264 7.936 18.944t18.944 7.936q6.4 0 12.8-3.072t8.192-8.704h60.928l-33.792 33.024q-20.48 19.968-48.128 19.968-28.16 0-48.128-19.968t-19.968-48.128q0-28.672 19.968-48.128l44.8-45.056q19.968-19.968 48.384-19.968 24.832 0 43.776 16.128z"></path>
</svg>
