<?xml version="1.0" encoding="UTF-8" standalone="no"?>
<!-- Generated by IcoMoon.io -->

<svg
   xmlns:dc="http://purl.org/dc/elements/1.1/"
   xmlns:cc="http://creativecommons.org/ns#"
   xmlns:rdf="http://www.w3.org/1999/02/22-rdf-syntax-ns#"
   xmlns:svg="http://www.w3.org/2000/svg"
   xmlns="http://www.w3.org/2000/svg"
   xmlns:sodipodi="http://sodipodi.sourceforge.net/DTD/sodipodi-0.dtd"
   xmlns:inkscape="http://www.inkscape.org/namespaces/inkscape"
   version="1.1"
   width="256"
   height="256"
   viewBox="0 0 256 256"
   id="svg2"
   inkscape:version="0.48.5 r10040"
   sodipodi:docname="uEA14-googleplus.svg">
  <metadata
     id="metadata10">
    <rdf:RDF>
      <cc:Work
         rdf:about="">
        <dc:format>image/svg+xml</dc:format>
        <dc:type
           rdf:resource="http://purl.org/dc/dcmitype/StillImage" />
        <dc:title></dc:title>
      </cc:Work>
    </rdf:RDF>
  </metadata>
  <defs
     id="defs8" />
  <sodipodi:namedview
     pagecolor="#ffffff"
     bordercolor="#666666"
     borderopacity="1"
     objecttolerance="10"
     gridtolerance="10"
     guidetolerance="10"
     inkscape:pageopacity="0"
     inkscape:pageshadow="2"
     inkscape:window-width="1325"
     inkscape:window-height="744"
     id="namedview6"
     showgrid="false"
     inkscape:zoom="1.5863723"
     inkscape:cx="90.377901"
     inkscape:cy="195.81749"
     inkscape:window-x="41"
     inkscape:window-y="24"
     inkscape:window-maximized="1"
     inkscape:current-layer="svg2" />
  <path
     style="fill:#000000"
     d="M 46.84375 0 C 20.73175 0 -9.4739031e-15 20.73175 0 46.84375 L 0 100.9375 C 10.888788 69.676856 41.315229 45.218639 75.0625 44.8125 C 97.058944 42.937096 118.47862 51.504702 135.125 65.4375 C 128.29853 72.941995 121.33226 80.364852 113.90625 87.3125 C 99.255605 78.408675 81.625322 71.597745 64.5 77.625 C 36.874754 85.490133 20.154918 118.13025 30.375 145.15625 C 38.83797 173.37961 73.15655 188.85831 100.0625 177 C 113.995 172.01143 123.18721 159.15826 127.21875 145.34375 C 111.25071 145.02638 95.280264 145.21969 79.3125 144.78125 C 79.27304 135.28017 79.24038 125.81358 79.28125 116.3125 C 105.90765 116.2751 132.55282 116.19813 159.21875 116.4375 C 160.85525 139.70981 157.4418 164.6306 142.3125 183.3125 C 121.59391 209.98072 83.294275 217.80272 52.15625 207.34375 C 27.702612 199.30944 8.2090782 178.99756 0 154.84375 L 0 209.15625 C 0 235.26825 20.73175 256 46.84375 256 C 86.421109 256 164.49376 256.86564 209.15625 256 C 235.26335 255.494 256 235.26825 256 209.15625 L 256 140.1875 C 249.01569 140.22298 242.00745 140.27704 235.03125 140.3125 C 234.95045 148.29594 234.91538 156.2353 234.875 164.21875 C 226.92905 164.17835 218.99929 164.21875 211.09375 164.21875 C 211.01605 156.2353 211.01838 148.2868 210.9375 140.34375 C 202.99445 140.26295 195.00555 140.22789 187.0625 140.1875 L 187.0625 116.40625 C 195.00555 116.36585 202.95406 116.32776 210.9375 116.25 C 210.9779 108.30406 211.04699 100.31804 211.125 92.375 L 234.875 92.375 C 234.9154 100.31804 234.99086 108.30406 235.03125 116.25 C 242.00739 116.31824 249.01574 116.33903 256 116.375 L 256 46.84375 C 256 20.73175 235.26825 -9.4739031e-15 209.15625 0 L 46.84375 0 z "
     id="path4" />
</svg>
