<?xml version="1.0" encoding="utf-8"?>
<!-- Generated by IcoMoon.io -->
<!DOCTYPE svg PUBLIC "-//W3C//DTD SVG 1.1//EN" "http://www.w3.org/Graphics/SVG/1.1/DTD/svg11.dtd">
<svg version="1.1" xmlns="http://www.w3.org/2000/svg" xmlns:xlink="http://www.w3.org/1999/xlink" width="118" height="256" viewBox="0 0 118 256">
<path fill="rgb(0, 0, 0)" d="M90.112 0q12.288 0 18.944 6.912t6.656 17.664q0 12.8-9.984 22.528t-24.32 9.728q-12.288 0-18.944-6.656t-6.144-18.432q0-11.776 8.96-21.76t24.832-9.984zM37.376 256q-25.6 0-13.824-45.568l15.36-65.024q3.584-14.336 0-14.336-3.072 0-13.824 4.608t-18.432 9.728l-6.656-11.264q23.040-19.968 48.384-32.256t38.656-12.288q19.968 0 9.216 41.472l-17.92 68.096q-4.096 16.384 1.536 16.384 11.264 0 30.208-15.36l7.68 10.24q-21.504 22.016-44.8 33.792t-35.584 11.776z"></path>
</svg>
