<?xml version="1.0" encoding="utf-8"?>
<!-- Generated by IcoMoon.io -->
<!DOCTYPE svg PUBLIC "-//W3C//DTD SVG 1.1//EN" "http://www.w3.org/Graphics/SVG/1.1/DTD/svg11.dtd">
<svg version="1.1" xmlns="http://www.w3.org/2000/svg" xmlns:xlink="http://www.w3.org/1999/xlink" width="284" height="256" viewBox="0 0 284 256">
<path fill="rgb(0, 0, 0)" d="M278.61 140.408q8.46 23.124-2.82 49.631t-37.787 45.119q-2.82 0-3.384-0.564t-4.512-5.358-4.512-5.358q-0.564-1.692 0.564-2.82 24.251-16.92 32.993-42.863t-3.102-41.735q-4.512 10.716-10.998 21.431t-16.638 22.559-24.251 18.329-29.891 4.23q-14.664-1.692-23.688-11.562t-9.024-26.226q0-23.688 16.92-41.735 14.1-14.1 32.147-18.611l-0.564-28.2q-39.479 6.768-41.171 6.768-1.692 0.564-2.82-1.128 0-0.564-1.41-8.178t-1.41-8.742q-0.564-0.564 0.282-1.128t1.974-0.564l43.991-7.896q0-31.019-0.564-32.147 0-2.256 2.256-2.256 12.972 0 14.664-0.564 2.82 0 2.82 2.256v29.328q44.555-6.204 46.247-6.204 2.256-1.128 2.82 1.692 0 0.564 1.128 6.486t1.128 7.050q1.128 2.82-1.128 3.384l-49.631 8.46v28.763h3.384q24.251 0 41.735 10.152t24.252 28.2zM174.272 185.527q7.896 1.692 17.484-1.692l-1.128-60.347q-9.588 3.384-16.92 11.28-12.408 12.408-12.408 30.455 0 18.612 12.972 20.304zM208.675 177.631q7.896-6.768 16.356-19.175t12.69-22.278 1.974-11.562q-10.152-5.076-27.072-5.076-0.564 0-1.692 0.282t-1.692 0.282zM82.342 69.909q2.82 7.896 14.946 46.529t23.406 73.6 11.28 35.531q0 1.128-1.128 1.128h-24.251q-1.692 0-1.692-1.128l-14.1-46.811h-49.631q-13.536 46.247-14.1 46.811 0 1.128-1.692 1.128h-24.252q-1.128 0-1.128-1.128 2.82-5.076 49.631-155.661 0.564-2.256 2.82-2.256h27.072q2.82 0 2.82 2.256zM45.683 159.019h40.607l-20.303-74.447z"></path>
</svg>
