<?xml version="1.0" encoding="utf-8"?>
<!-- Generated by IcoMoon.io -->
<!DOCTYPE svg PUBLIC "-//W3C//DTD SVG 1.1//EN" "http://www.w3.org/Graphics/SVG/1.1/DTD/svg11.dtd">
<svg version="1.1" xmlns="http://www.w3.org/2000/svg" xmlns:xlink="http://www.w3.org/1999/xlink" width="255" height="256" viewBox="0 0 255 256">
<path fill="rgb(0, 0, 0)" d="M107.463 27.204c-67.198 0-107.516 53.758-107.516 80.637s13.44 47.038 40.319 47.038 40.319 6.72 40.319 26.879c0 26.879 20.159 47.038 47.038 47.038 87.357 0 127.675-47.038 127.675-94.077 0-80.637-67.197-107.516-147.834-107.516zM90.799 54.083c9.139 0 16.665 7.526 16.665 16.665 0 9.408-7.526 16.934-16.665 16.934-9.408 0-16.934-7.526-16.934-16.934 0-9.139 7.526-16.665 16.934-16.665zM144.556 54.083c9.139 0 16.665 7.526 16.665 16.665 0 9.408-7.526 16.934-16.665 16.934-9.408 0-16.934-7.526-16.934-16.934 0-9.139 7.526-16.665 16.934-16.665zM198.314 80.962c9.139 0 16.665 7.526 16.665 16.665 0 9.408-7.526 16.934-16.665 16.934-9.408 0-16.934-7.526-16.934-16.934 0-9.139 7.526-16.665 16.934-16.665zM43.76 94.401c9.139 0 16.665 7.526 16.665 16.665 0 9.408-7.526 16.934-16.665 16.934-9.408 0-16.934-7.526-16.934-16.934 0-9.139 7.526-16.665 16.934-16.665zM127.623 161.599c11.020 0 20.159 9.139 20.159 20.159s-9.139 20.159-20.159 20.159-20.159-9.139-20.159-20.159 9.139-20.159 20.159-20.159z"></path>
</svg>
