<?xml version="1.0" encoding="utf-8"?>
<!-- Generated by IcoMoon.io -->
<!DOCTYPE svg PUBLIC "-//W3C//DTD SVG 1.1//EN" "http://www.w3.org/Graphics/SVG/1.1/DTD/svg11.dtd">
<svg version="1.1" xmlns="http://www.w3.org/2000/svg" xmlns:xlink="http://www.w3.org/1999/xlink" width="256" height="256" viewBox="0 0 256 256">
<path fill="rgb(0, 0, 0)" d="M256 128q0 3.584-2.816 6.4l-36.352 36.608q-2.816 2.816-6.656 2.816t-6.4-2.816-2.56-6.4v-18.432h-55.040v55.040h18.432q3.584 0 6.4 2.56t2.816 6.4-2.816 6.656l-36.608 36.352q-2.56 2.816-6.4 2.816t-6.4-2.816l-36.608-36.352q-2.816-2.816-2.816-6.656t2.816-6.4 6.4-2.56h18.432v-55.040h-55.040v18.432q0 3.584-2.56 6.4t-6.4 2.816-6.656-2.816l-36.352-36.608q-2.816-2.816-2.816-6.4t2.816-6.4l36.352-36.608q2.816-2.816 6.656-2.816t6.4 2.816 2.56 6.4v18.432h55.040v-55.040h-18.432q-3.584 0-6.4-2.56t-2.816-6.4 2.816-6.656l36.608-36.352q2.816-2.816 6.4-2.816t6.4 2.816l36.608 36.352q2.816 2.816 2.816 6.656t-2.816 6.4-6.4 2.56h-18.432v55.040h55.040v-18.432q0-3.584 2.56-6.4t6.4-2.816 6.656 2.816l36.352 36.608q2.816 2.56 2.816 6.4z"></path>
</svg>
