<?xml version="1.0" encoding="utf-8"?>
<!-- Generated by IcoMoon.io -->
<!DOCTYPE svg PUBLIC "-//W3C//DTD SVG 1.1//EN" "http://www.w3.org/Graphics/SVG/1.1/DTD/svg11.dtd">
<svg version="1.1" xmlns="http://www.w3.org/2000/svg" xmlns:xlink="http://www.w3.org/1999/xlink" width="267" height="256" viewBox="0 0 267 256">
<path fill="rgb(0, 0, 0)" d="M53.504 94.464q0-33.28 33.28-33.28t33.28 33.28-33.28 33.28-33.28-33.28zM186.624 114.688q10.496 0 19.712 15.616 13.312 23.808 20.224 64.256h-186.624l4.352-13.312q4.352-13.824 14.080-26.88t21.76-13.056q13.568 0 32.256 9.728 6.4 3.584 14.336 3.584 9.728 0 22.016-14.080 14.848-16.64 23.552-21.76 6.912-4.096 14.336-4.096zM0 47.872q0-11.008 7.68-18.688t18.944-7.936h213.504q10.752 0 18.688 7.936t7.68 18.688v160q0 11.264-7.68 18.944t-18.688 7.936h-213.504q-11.008 0-18.688-7.936t-7.936-18.944v-160zM240.128 207.872v-160h-213.504v160h213.504z"></path>
</svg>
