<?xml version="1.0" encoding="utf-8"?>
<!-- Generated by IcoMoon.io -->
<!DOCTYPE svg PUBLIC "-//W3C//DTD SVG 1.1//EN" "http://www.w3.org/Graphics/SVG/1.1/DTD/svg11.dtd">
<svg version="1.1" xmlns="http://www.w3.org/2000/svg" xmlns:xlink="http://www.w3.org/1999/xlink" width="245" height="256" viewBox="0 0 245 256">
<path fill="rgb(0, 0, 0)" d="M245.041 199.033q0 4.673-1.869 12.151t-3.738 11.839q-3.427 8.724-21.185 18.692-16.201 8.724-32.090 8.724-4.985 0-9.347-0.623t-9.969-2.18-8.1-2.493-9.658-3.427-8.724-3.116q-16.823-6.231-30.221-14.643-22.432-13.709-46.11-37.386t-37.386-46.11q-8.412-13.397-14.331-30.221-0.623-1.558-3.116-8.724t-3.738-9.658-2.493-8.1-2.18-9.969-0.623-9.034q0-16.201 9.034-32.401 9.658-17.447 18.381-21.185 4.362-1.869 11.84-3.738t12.151-1.869q2.492 0 3.738 0.623 3.116 0.934 9.347 13.396 1.869 3.116 4.985 9.347t6.231 10.904 5.296 9.347q0.623 0.623 3.116 4.362t3.738 6.231 1.246 4.985q0 3.427-4.985 8.724t-10.904 9.347-10.593 9.347-4.985 7.789q0 1.558 0.934 4.051t1.246 3.427 2.492 4.362 2.18 3.116q13.085 23.989 30.221 41.125t40.814 30.221q0.311 0 3.116 1.869t4.362 2.493 3.427 1.558 4.051 0.623q3.116 0 7.789-4.673t9.347-10.904 9.658-10.904 8.724-4.985q2.18 0 4.673 1.246t6.231 3.738 4.362 3.116q4.362 2.493 9.347 5.297t10.904 6.231 9.658 5.297q12.151 5.92 13.085 9.035 0.623 1.246 0.623 3.738z"></path>
</svg>
