<?xml version="1.0" encoding="utf-8"?>
<!-- Generated by IcoMoon.io -->
<!DOCTYPE svg PUBLIC "-//W3C//DTD SVG 1.1//EN" "http://www.w3.org/Graphics/SVG/1.1/DTD/svg11.dtd">
<svg version="1.1" xmlns="http://www.w3.org/2000/svg" xmlns:xlink="http://www.w3.org/1999/xlink" width="241" height="256" viewBox="0 0 241 256">
<path fill="rgb(0, 0, 0)" d="M0 93.952v-73.472q0.512-7.936 6.144-13.824t13.312-5.632h73.472q22.528 1.536 34.048 14.080l109.056 120.832q4.864 7.168 4.864 14.848t-4.864 13.312l-85.504 85.504q-6.4 5.376-14.592 5.376t-13.312-5.376l-108.544-121.6q-14.080-16.384-14.080-34.048zM32 51.968q0.512 7.936 5.888 13.312t13.056 5.12q8.192 0 13.312-5.632t5.376-12.8q0-8.448-5.888-13.824t-12.8-5.12q-8.448 0.512-13.568 5.888t-5.376 13.056z"></path>
</svg>
