<?xml version="1.0" encoding="utf-8"?>
<!-- Generated by IcoMoon.io -->
<!DOCTYPE svg PUBLIC "-//W3C//DTD SVG 1.1//EN" "http://www.w3.org/Graphics/SVG/1.1/DTD/svg11.dtd">
<svg version="1.1" xmlns="http://www.w3.org/2000/svg" xmlns:xlink="http://www.w3.org/1999/xlink" width="308" height="256" viewBox="0 0 308 256">
<path fill="rgb(0, 0, 0)" d="M0 205.056q5.12-1.792 15.36-5.632t17.664-6.656 12.8-5.632q9.472-4.864 14.592-14.336t5.376-19.456q0-6.912-7.936-16.384-4.864-5.376-8.448-15.36-11.52-4.608-11.52-19.456 0-11.008 3.584-15.616-1.28-9.984-2.304-20.992-1.28-14.080 6.656-27.648t21.504-21.504 28.16-8.192q11.008 0 21.76 4.864t18.688 12.8 12.288 18.432 3.584 21.248q-1.024 14.080-2.048 20.992 3.584 4.864 3.584 15.616 0 14.848-11.52 19.456-3.84 10.496-8.192 15.36-8.192 9.472-8.192 16.384 0 9.984 5.12 19.456t14.848 14.336q7.424 3.84 23.552 9.728t28.928 11.008 16.896 9.728q4.608 4.352 7.168 12.032t2.56 13.056l0.256 5.376h-224.768v-43.008zM180.48 128.512q0-8.704 3.072-12.8-1.28-8.192-1.792-17.152-1.024-11.52 5.376-22.784t17.664-18.432 23.040-6.912 22.784 6.912 17.664 18.432 5.632 22.784q-0.512 8.96-2.048 17.152 3.072 4.096 3.072 12.8 0 12.288-9.216 15.872-3.072 8.448-6.912 12.8-2.304 2.56-3.328 4.096t-2.304 4.096-1.024 5.12q0 8.192 4.352 15.872t12.032 11.776q4.352 2.304 10.752 4.864t15.36 5.632 12.8 4.864v34.56h-65.024q0-1.024 0-2.816t-0.768-6.656-1.792-9.216-3.84-9.728-5.888-8.448q-5.888-6.4-13.568-11.264t-20.224-9.472q6.912-8.704 6.912-19.968 0-2.56-1.28-5.12t-2.048-4.096-3.072-4.096q-3.584-3.84-6.912-12.544-9.472-4.096-9.472-16.128z"></path>
</svg>
