<?xml version="1.0" encoding="utf-8"?>
<!-- Generated by IcoMoon.io -->
<!DOCTYPE svg PUBLIC "-//W3C//DTD SVG 1.1//EN" "http://www.w3.org/Graphics/SVG/1.1/DTD/svg11.dtd">
<svg version="1.1" xmlns="http://www.w3.org/2000/svg" xmlns:xlink="http://www.w3.org/1999/xlink" width="32" height="32" viewBox="0 0 32 32">
<path fill="rgb(0, 0, 0)" d="M15.872 0c-5.632 0-10.592 2.88-13.472 7.232-0.576 0.864-1.056 1.76-1.472 2.72-0.384 0.928-0.672 1.92-0.896 2.944 0 0 0 0.032 0 0.032v0 0c0 0.032 0 0.064 0 0.064 0 0.224 0.16 0.384 0.352 0.384h3.232c0.16 0 0.32-0.128 0.352-0.288 0.928-3.616 3.488-6.592 6.848-8.096 0.64-0.32 1.312-0.544 2.016-0.736 0.992-0.224 1.984-0.352 3.040-0.352v0 0 0c0.8 0 1.6 0.064 2.368 0.224 0.16 0.032 0.32 0.064 0.448 0.096 0.192 0.032 0.32 0.096 0.448 0.128v0c0.16 0.032 0.352-0.032 0.416-0.192l1.632-2.784c0 0 0.032-0.032 0.032-0.064 0.064-0.192-0.032-0.416-0.224-0.48-0.704-0.224-1.376-0.416-2.080-0.544-0.16-0.032-0.288-0.032-0.416-0.064-0.864-0.16-1.728-0.224-2.624-0.224v0 0zM26.336 3.648c-0.16 0-0.288 0.064-0.352 0.192l-1.6 2.784c-0.096 0.128-0.064 0.32 0.064 0.448 0.928 0.928 1.728 2.016 2.336 3.232 0.128 0.224 0.224 0.448 0.352 0.704 0.608 1.472 0.96 3.104 0.96 4.832v0 0c0 2.464-0.704 4.768-1.984 6.688-0.224 0.352-0.48 0.736-0.768 1.088-0.288 0.32-0.576 0.64-0.896 0.96v0 0 0c-0.128 0.128-0.16 0.32-0.064 0.448l1.6 2.784c0 0.032 0.032 0.064 0.064 0.096 0.128 0.16 0.352 0.16 0.512 0.032 1.856-1.664 3.328-3.744 4.288-6.080 0.192-0.448 0.352-0.928 0.48-1.408 0.448-1.472 0.672-3.008 0.672-4.608 0-3.456-1.088-6.688-2.944-9.312-0.352-0.512-0.736-0.992-1.184-1.472-0.416-0.448-0.832-0.896-1.312-1.312v0c-0.032-0.032-0.032-0.032-0.064-0.032-0.064-0.032-0.128-0.064-0.16-0.064zM0.384 18.624v0c-0.032 0-0.064 0-0.096 0-0.192 0.032-0.32 0.256-0.288 0.448 1.088 5.312 4.768 9.664 9.664 11.712 0.96 0.384 1.952 0.672 2.976 0.896 1.024 0.192 2.112 0.32 3.2 0.32v0 0c1.28 0 2.528-0.16 3.744-0.448 0.224-0.032 0.448-0.096 0.704-0.16 0.192-0.064 0.416-0.16 0.64-0.224 0.032 0 0.064-0.032 0.096-0.032 0.192-0.096 0.256-0.32 0.128-0.512l-1.6-2.784c-0.096-0.16-0.256-0.224-0.416-0.192-0.448 0.128-0.896 0.224-1.344 0.288-0.096 0.032-0.192 0.032-0.256 0.064-0.576 0.064-1.12 0.096-1.696 0.096v0 0c-4.096 0-7.744-2.016-9.952-5.12-0.032 0-0.032 0-0.032 0-0.416-0.608-0.8-1.28-1.12-1.952s-0.576-1.376-0.768-2.080c-0.032-0.192-0.192-0.32-0.352-0.32h-3.232z"></path>
</svg>
