<?xml version="1.0" encoding="utf-8"?>
<!-- Generated by IcoMoon.io -->
<!DOCTYPE svg PUBLIC "-//W3C//DTD SVG 1.1//EN" "http://www.w3.org/Graphics/SVG/1.1/DTD/svg11.dtd">
<svg version="1.1" xmlns="http://www.w3.org/2000/svg" xmlns:xlink="http://www.w3.org/1999/xlink" width="256" height="256" viewBox="0 0 256 256">
<path fill="rgb(0, 0, 0)" d="M251.904 1.536q4.864 3.584 3.84 9.216l-36.352 219.392q-0.768 4.096-4.608 6.4-2.048 1.28-4.608 1.28-1.536 0-3.328-0.768l-64.768-26.368-34.56 41.984q-2.56 3.328-6.912 3.328-1.792 0-3.072-0.512-2.816-1.024-4.352-3.328t-1.792-5.376v-49.664l123.392-151.296-152.576 132.096-56.576-23.296q-5.12-1.792-5.632-7.68-0.256-5.888 4.608-8.448l237.568-137.216q2.304-1.28 4.608-1.28 2.816 0 5.12 1.536z"></path>
</svg>
