<?xml version="1.0" encoding="utf-8"?>
<!-- Generated by IcoMoon.io -->
<!DOCTYPE svg PUBLIC "-//W3C//DTD SVG 1.1//EN" "http://www.w3.org/Graphics/SVG/1.1/DTD/svg11.dtd">
<svg version="1.1" xmlns="http://www.w3.org/2000/svg" xmlns:xlink="http://www.w3.org/1999/xlink" width="28" height="32" viewBox="0 0 28 32">
<path fill="rgb(0, 0, 0)" d="M0 23.264q0-1.728 0.192-5.184 0.128-1.696 1.216-2.784t2.784-1.152q3.2-0.16 9.632-0.16t9.632 0.16q1.696 0.096 2.784 1.152t1.216 2.784q0.16 2.88 0.16 5.184t-0.16 5.184q-0.128 1.696-1.216 2.784t-2.784 1.152q-3.2 0.16-9.632 0.16t-9.632-0.16q-1.696-0.096-2.784-1.152t-1.216-2.784q-0.192-3.456-0.192-5.184zM2.144 18.752h1.952v10.432h1.888v-10.432h1.952v-1.76h-5.792v1.76zM4.224-0.544h1.92l1.216 4.864h0.128l1.152-4.864h1.92l-1.472 4.736q-0.736 2.336-0.736 2.4v5.056h-1.888v-4.832q-0.064-0.448-0.16-0.832t-0.288-0.832-0.288-0.8zM7.936 27.776q0 1.536 1.152 1.536 1.024 0 1.952-1.12v0.992h1.664v-8.992h-1.664v6.848q-0.672 0.672-0.992 0.672-0.448 0-0.448-0.608v-6.912h-1.664v7.584zM10.464 9.376v-4.672q0-1.088 0.704-1.696t1.792-0.576q1.056 0 1.728 0.64t0.64 1.696v4.64q0 1.152-0.64 1.792t-1.792 0.672q-1.12 0-1.76-0.704t-0.672-1.792zM12.192 9.6q0 0.736 0.704 0.736 0.736 0 0.736-0.8v-4.896q0-0.288-0.224-0.48t-0.512-0.192-0.48 0.16-0.224 0.48v4.992zM14.336 29.184h1.696v-0.672q0.64 0.8 1.6 0.8 1.504 0 1.504-1.984v-4.992q0-2.272-1.632-2.272-0.8 0-1.472 0.864v-3.936h-1.696v12.192zM16.032 27.488v-5.632q0.352-0.352 0.704-0.352 0.704 0 0.704 0.896v4.736q0 0.768-0.608 0.768-0.448 0-0.8-0.416zM16.768 10.24v-7.584h1.664v6.88q0 0.608 0.448 0.608 0.416 0 0.992-0.672v-6.816h1.664v8.992h-1.664v-0.992q-0.928 1.12-1.952 1.12-1.152 0-1.152-1.536zM20.416 26.656q0 1.216 0.608 2.016t1.824 0.768q2.496 0 2.496-2.784v-0.672h-1.728q0 0.064 0.032 0.416t-0.032 0.544-0.064 0.448-0.224 0.384-0.448 0.096q-0.736 0-0.736-1.28v-1.696h3.2v-2.304q0-1.216-0.576-1.92t-1.824-0.704q-1.152 0-1.824 0.736t-0.704 1.888v4.064zM22.144 23.488v-0.96q0-0.992 0.736-0.992t0.736 0.992v0.96h-1.472z"></path>
</svg>
