<?xml version="1.0" encoding="utf-8"?>
<!-- Generated by IcoMoon.io -->
<!DOCTYPE svg PUBLIC "-//W3C//DTD SVG 1.1//EN" "http://www.w3.org/Graphics/SVG/1.1/DTD/svg11.dtd">
<svg version="1.1" xmlns="http://www.w3.org/2000/svg" xmlns:xlink="http://www.w3.org/1999/xlink" width="221" height="256" viewBox="0 0 221 256">
<path fill="rgb(0, 0, 0)" d="M0 186.112q0-13.824 1.536-41.472 1.024-13.568 9.728-22.272t22.272-9.216q25.6-1.28 77.056-1.28t77.056 1.28q13.568 0.768 22.272 9.216t9.728 22.272q1.28 23.040 1.28 41.472t-1.28 41.472q-1.024 13.568-9.728 22.272t-22.272 9.216q-25.6 1.28-77.056 1.28t-77.056-1.28q-13.568-0.768-22.272-9.216t-9.728-22.272q-1.536-27.648-1.536-41.472zM17.152 150.016h15.616v83.456h15.104v-83.456h15.616v-14.080h-46.336v14.080zM33.792-4.352h15.36l9.728 38.912h1.024l9.216-38.912h15.36l-11.776 37.888q-5.888 18.688-5.888 19.2v40.448h-15.104v-38.656q-0.512-3.584-1.28-6.656t-2.304-6.656-2.304-6.4zM63.488 222.208q0 12.288 9.216 12.288 8.192 0 15.616-8.96v7.936h13.312v-71.936h-13.312v54.784q-5.376 5.376-7.936 5.376-3.584 0-3.584-4.864v-55.296h-13.312v60.672zM83.712 75.008v-37.376q0-8.704 5.632-13.568t14.336-4.608q8.448 0 13.824 5.12t5.12 13.568v37.12q0 9.216-5.12 14.336t-14.336 5.376q-8.96 0-14.080-5.632t-5.376-14.336zM97.536 76.8q0 5.888 5.632 5.888 5.888 0 5.888-6.4v-39.168q0-2.304-1.792-3.84t-4.096-1.536-3.84 1.28-1.792 3.84v39.936zM114.688 233.472h13.568v-5.376q5.12 6.4 12.8 6.4 12.032 0 12.032-15.872v-39.936q0-18.176-13.056-18.176-6.4 0-11.776 6.912v-31.488h-13.568v97.536zM128.256 219.904v-45.056q2.816-2.816 5.632-2.816 5.632 0 5.632 7.168v37.888q0 6.144-4.864 6.144-3.584 0-6.4-3.328zM134.144 81.92v-60.672h13.312v55.040q0 4.864 3.584 4.864 3.328 0 7.936-5.376v-54.528h13.312v71.936h-13.312v-7.936q-7.424 8.96-15.616 8.96-9.216 0-9.216-12.288zM163.328 213.248q0 9.728 4.864 16.128t14.592 6.144q19.968 0 19.968-22.272v-5.376h-13.824q0 0.512 0.256 3.328t-0.256 4.352-0.512 3.584-1.792 3.072-3.584 0.768q-5.888 0-5.888-10.24v-13.568h25.6v-18.432q0-9.728-4.608-15.36t-14.592-5.632q-9.216 0-14.592 5.888t-5.632 15.104v32.512zM177.152 187.904v-7.68q0-7.936 5.888-7.936t5.888 7.936v7.68h-11.776z"></path>
</svg>
