<svg xmlns="http://www.w3.org/2000/svg" viewBox="0 0 200 40">
    <path class="universitas" fill="#C64A34" d="M11.57 32.8H6.4V0H0v33.23C0 38.46.35 40 4.35 40h9.26c4 0 4.35-1.54 4.35-6.77V0h-6.4v32.8zm95.68-16.01h-6V7.15h6v9.63zm2.17 6.13c3.8 0 3.86-1.94 3.86-6.11V7.19c0-5.81-.43-7.2-3.86-7.2H94.94v40h6.31V24l7.44 16h6.88l-7.92-17.07h1.77zM200 13.33V7.18c0-5.11-.3-7.18-3.75-7.18h-10.74c-3.79 0-3.75 2.76-3.75 6.94v9.27c0 3.1 2.04 4.03 4.38 4.98l7.53 3.09v8.53h-5.51v-6.13h-6.4v6.13c0 4.82 0 7.18 3.64 7.18l10.91.01c3.76.02 3.69-3.01 3.69-7.19V22.5c0-3.27-2.65-4.05-5.02-5.02l-6.82-2.77V7.19h5.44v6.14h6.4zM130.64 0H120.1c-3.71 0-3.68 2.76-3.68 6.94v9.27c0 3.1 2 4.03 4.3 4.98l7.4 3.09-.01 8.53h-5.4v-6.14h-6.28v6.14c0 4.81 0 7.19 3.57 7.19h10.71c3.68 0 3.62-3.02 3.62-7.19V22.48c0-3.26-2.6-4.04-4.93-5.01l-6.7-2.77V7.19h5.35v6.14h6.28V7.18c0-5.11-.3-7.18-3.68-7.18m31.98 0H145.1v7.19h5.76v32.8h6.4V7.2h5.36V0zm-25.37 40h6.4V0h-6.4v40zm-55.4-18.01h6.55v-6.11h-6.55v-8.7H92.3V0H75.45v40h17.32v-7.2H81.85V22zm86.65 3.7l1.92-13.71 1.91 13.7h-3.83zm-2.24-25.7l-6.46 40h6.4l1.14-7.1h6.15l1.15 7.1h6.4l-6.47-40h-8.3zM63.14 28L58.92 0h-6.4l6.46 40h8.32l6.46-40h-6.4l-4.22 28zM34.2 20.75L28.7 0h-7.36v40h6.4V19.46L33.65 40h6.94V0h-6.4v20.75zM44.44 40h6.4V0h-6.4v40z"/>
</svg>
