<svg version="1.1" id="Layer_1" xmlns="http://www.w3.org/2000/svg" xmlns:xlink="http://www.w3.org/1999/xlink" x="0px" y="0px"
	  viewBox="0 0 200 40" enable-background="new 0 0 200 40" xml:space="preserve" class="main-logo">
<path class="text" fill="#C64A34" d="M11.567,32.807C11.566,32.807,11.566,32.807,11.567,32.807H6.399H6.398V-0.002H0v33.229
	c0,5.234,0.348,6.771,4.354,6.771h9.254c4.006,0,4.354-1.537,4.354-6.771V-0.002h-6.396L11.567,32.807L11.567,32.807z
	 M107.25,16.785h-5.997V7.163h5.997V16.785z M109.424,22.92c3.803,0,3.854-1.938,3.854-6.111V7.187c0-5.811-0.43-7.189-3.854-7.189
	H94.936v40h6.317V23.996l7.438,16.002h6.877L107.65,22.92H109.424z M200,13.333v-6.15c0-5.114-0.299-7.186-3.75-7.186h-10.74
	c-3.786,0-3.748,2.768-3.748,6.942v9.273c0,3.105,2.04,4.024,4.376,4.981c2.509,1.029,5.019,2.057,7.529,3.086l-0.002,8.533h-5.509
	v-6.135h-6.396v6.137c0,4.813,0,7.18,3.638,7.18l10.916,0.008c3.752,0.021,3.686-3.014,3.686-7.188V22.486
	c0-3.268-2.648-4.048-5.018-5.015c-2.273-0.927-4.545-1.852-6.826-2.772V7.186l5.445-0.002v6.148h6.397L200,13.333L200,13.333z
	 M130.641-0.002h-10.548c-3.717,0-3.679,2.767-3.679,6.941v9.273c0,3.104,1.999,4.024,4.295,4.98
	c2.467,1.029,4.929,2.055,7.393,3.084l-0.002,8.535h-5.404V26.67h-6.28v6.141c0,4.813,0,7.188,3.571,7.188h10.717
	c3.681,0.002,3.617-3.016,3.617-7.188V22.482c0-3.266-2.601-4.046-4.926-5.013c-2.231-0.927-4.467-1.852-6.699-2.771V7.185
	l5.346-0.002v6.148h6.279V7.183C134.318,2.069,134.025-0.002,130.641-0.002 M162.619-0.002h-17.516v7.189h5.76v32.812h6.393V7.187
	h5.359v-7.189H162.619z M137.247,39.998h6.396v-40h-6.396V39.998z M81.847,21.99h6.557v-6.11h-6.557V7.187h10.444v-7.189h-16.84v40
	h17.321v-7.191H81.847V21.99z M168.504,25.686l1.912-13.708l1.914,13.708H168.504z M166.262-0.002l-6.463,40h6.396l1.146-7.102
	h6.148l1.148,7.102h6.4l-6.463-40H166.262z M63.142,27.99L58.919-0.002h-6.398l6.462,40h8.316l6.463-40h-6.398L63.142,27.99z
	 M34.194,20.75L28.688-0.002h-7.357v40h6.397V19.459l5.919,20.539h6.946v-40h-6.399V20.75z M44.438,39.998h6.398v-40h-6.398V39.998z
	"/>
</svg>
