<?xml version="1.0" encoding="UTF-8" standalone="no"?>
<!-- Created with Inkscape (http://www.inkscape.org/) -->

<svg
   xmlns:dc="http://purl.org/dc/elements/1.1/"
   xmlns:cc="http://creativecommons.org/ns#"
   xmlns:rdf="http://www.w3.org/1999/02/22-rdf-syntax-ns#"
   xmlns:svg="http://www.w3.org/2000/svg"
   xmlns="http://www.w3.org/2000/svg"
   xmlns:sodipodi="http://sodipodi.sourceforge.net/DTD/sodipodi-0.dtd"
   xmlns:inkscape="http://www.inkscape.org/namespaces/inkscape"
   version="1.1"
   id="svg2"
   xml:space="preserve"
   width="518.01044"
   height="558.51117"
   viewBox="0 0 518.01044 558.51117"
   sodipodi:docname="velferdstinget_logo.svg"
   inkscape:version="0.92.1 r15371"><metadata
     id="metadata8"><rdf:RDF><cc:Work
         rdf:about=""><dc:format>image/svg+xml</dc:format><dc:type
           rdf:resource="http://purl.org/dc/dcmitype/StillImage" /><dc:title></dc:title></cc:Work></rdf:RDF></metadata><defs
     id="defs6" /><sodipodi:namedview
     pagecolor="#ffffff"
     bordercolor="#666666"
     borderopacity="1"
     objecttolerance="10"
     gridtolerance="10"
     guidetolerance="10"
     inkscape:pageopacity="0"
     inkscape:pageshadow="2"
     inkscape:window-width="1920"
     inkscape:window-height="1055"
     id="namedview4"
     showgrid="false"
     inkscape:zoom="0.41086349"
     inkscape:cx="260.08907"
     inkscape:cy="271.30862"
     inkscape:window-x="0"
     inkscape:window-y="25"
     inkscape:window-maximized="1"
     inkscape:current-layer="g16"
     fit-margin-top="0"
     fit-margin-left="0"
     fit-margin-right="0"
     fit-margin-bottom="0" /><g
     id="g10"
     inkscape:groupmode="layer"
     inkscape:label="ink_ext_XXXXXX"
     transform="matrix(1.3333333,0,0,-1.3333333,-41.038732,574.40252)"><g
       id="g12"
       transform="scale(0.1)"><g
         id="g16"
         transform="scale(10)"><path
           style="font-variant:normal;font-weight:bold;font-size:38.88890076px;font-family:OpenSans;-inkscape-font-specification:OpenSans-Bold;writing-mode:lr-tb;fill:#231f20;fill-opacity:1;fill-rule:nonzero;stroke:none;stroke-width:1.33333325"
           d="M 261.5625 464.7832 C 257.00521 464.7832 253.51259 465.7968 251.08203 467.82227 C 248.65148 469.84773 247.43555 472.74187 247.43555 476.50586 C 247.43555 479.5103 248.30445 481.89959 250.04297 483.67188 C 251.79837 485.44416 254.56679 486.73474 258.34766 487.54492 L 262.12109 488.38086 C 264.41662 488.88723 265.94358 489.46017 266.70312 490.10156 C 267.47955 490.74296 267.86719 491.65442 267.86719 492.83594 C 267.86719 494.15249 267.30276 495.16609 266.17188 495.875 C 265.04099 496.58391 263.41189 496.9375 261.28516 496.9375 C 259.19218 496.9375 257.01372 496.61796 254.75195 495.97656 C 252.50706 495.31829 250.1793 494.34725 247.76562 493.06445 L 247.76562 501.29297 C 250.1793 502.18755 252.59218 502.86263 255.00586 503.31836 C 257.41954 503.77409 259.8239 504.00195 262.2207 504.00195 C 267.30124 504.00195 271.07475 502.98835 273.53906 500.96289 C 276.02026 498.92055 277.25977 495.81556 277.25977 491.64648 C 277.25977 488.47326 276.37384 486.02633 274.60156 484.30469 C 272.82928 482.58304 269.84151 481.29902 265.63867 480.45508 L 261.48633 479.62109 C 259.5115 479.216 258.14431 478.73474 257.38477 478.17773 C 256.6421 477.60385 256.27148 476.80961 256.27148 475.79688 C 256.27148 474.44657 256.82935 473.45194 257.94336 472.81055 C 259.05736 472.16915 260.77814 471.84766 263.10742 471.84766 C 264.86282 471.84766 266.7283 472.08403 268.70312 472.55664 C 270.67795 473.02925 272.7032 473.72987 274.7793 474.6582 L 274.7793 472.83594 L 285.08398 472.83594 L 285.08398 503.26758 L 294.83008 503.26758 L 294.83008 472.83594 L 307.05859 472.83594 L 307.05859 503.26758 L 316.80664 503.26758 L 316.80664 465.4668 L 307.36328 465.4668 L 307.05859 465.4668 L 272.52539 465.4668 L 272.52539 466.10742 C 270.97248 465.75543 269.45223 465.47103 267.96875 465.26562 C 265.7745 464.94493 263.6386 464.7832 261.5625 464.7832 z M 385.2168 464.7832 C 378.70156 464.7832 373.57133 466.53147 369.82422 470.02539 C 366.07711 473.51932 364.20312 478.31298 364.20312 484.40625 C 364.20312 490.432 366.04306 495.20865 369.72266 498.73633 C 373.40225 502.24713 378.38973 504.00195 384.68555 504.00195 C 387.47056 504.00195 390.17089 503.70599 392.78711 503.11523 C 395.40333 502.52447 397.92687 501.63855 400.35742 500.45703 L 400.35742 482.2793 L 385.16602 482.2793 L 385.16602 488.81055 L 391.11719 488.81055 L 391.11719 496.15234 C 390.42515 496.42241 389.63942 496.62669 388.76172 496.76172 C 387.9009 496.87987 386.9639 496.9375 385.95117 496.9375 C 382.22094 496.9375 379.34382 495.84925 377.31836 493.67188 C 375.2929 491.4945 374.2793 488.40654 374.2793 484.40625 C 374.2793 480.3722 375.32694 477.27378 377.41992 475.11328 C 379.52978 472.93591 382.52411 471.84766 386.40625 471.84766 C 388.49923 471.84766 390.58406 472.14361 392.66016 472.73438 C 394.75314 473.32514 396.85499 474.21957 398.96484 475.41797 L 398.96484 467.59375 C 396.9225 466.66541 394.746 465.9648 392.43359 465.49219 C 390.13807 465.01958 387.73175 464.7832 385.2168 464.7832 z M 21.824219 465.4668 L 35.826172 503.26758 L 47.447266 503.26758 L 60.029297 469.29492 L 60.029297 503.26758 L 86.892578 503.26758 L 86.892578 495.90039 L 69.777344 495.90039 L 69.777344 487.24023 L 85.347656 487.24023 L 85.347656 479.87305 L 69.777344 479.87305 L 69.777344 472.83594 L 86.335938 472.83594 L 86.335938 465.4668 L 61.447266 465.4668 L 60.029297 465.4668 L 51.648438 465.4668 L 41.648438 493.36719 L 31.623047 465.4668 L 21.824219 465.4668 z M 89.070312 465.4668 L 89.070312 503.26758 L 115.93359 503.26758 L 115.93359 495.90039 L 98.818359 495.90039 L 98.818359 465.4668 L 89.070312 465.4668 z M 118.36328 465.4668 L 118.36328 503.26758 L 128.11133 503.26758 L 128.11133 487.24023 L 143.68164 487.24023 L 143.68164 479.87305 L 128.11133 479.87305 L 128.11133 472.83594 L 144.66797 472.83594 L 144.66797 465.4668 L 118.36328 465.4668 z M 146.82031 465.4668 L 146.82031 503.26758 L 173.68359 503.26758 L 173.68359 495.90039 L 156.56836 495.90039 L 156.56836 487.24023 L 172.13867 487.24023 L 172.13867 479.87305 L 156.56836 479.87305 L 156.56836 472.83594 L 173.12695 472.83594 L 173.12695 465.4668 L 146.82031 465.4668 z M 175.86133 465.4668 L 175.86133 503.26758 L 185.60938 503.26758 L 185.60938 488.96289 L 188.36914 488.96289 C 189.95575 488.96289 191.2208 489.30797 192.16602 490 C 193.12811 490.69203 194.07362 491.98457 195.00195 493.875 L 199.60938 503.26758 L 209.99023 503.26758 L 204.69922 492.5332 C 203.61897 490.35583 202.54579 488.73524 201.48242 487.67188 C 200.43593 486.59163 199.24749 485.89952 197.91406 485.5957 C 200.34462 484.83615 202.15902 483.65427 203.35742 482.05078 C 204.5727 480.44729 205.17969 478.39651 205.17969 475.89844 C 205.17969 472.28636 204.01483 469.64562 201.68555 467.97461 C 199.37314 466.3036 195.72731 465.4668 190.74805 465.4668 L 175.86133 465.4668 z M 210.0918 465.4668 L 210.0918 503.26758 L 220.36914 503.26758 C 226.04044 503.26758 230.29521 502.86292 233.13086 502.05273 C 235.96651 501.22567 238.39641 499.83295 240.42188 497.875 C 242.19416 496.17023 243.51027 494.20457 244.37109 491.97656 C 245.23192 489.73167 245.66211 487.18261 245.66211 484.33008 C 245.66211 481.51131 245.23192 478.98778 244.37109 476.75977 C 243.51027 474.53176 242.19416 472.56414 240.42188 470.85938 C 238.41329 468.90143 236.00041 467.51722 233.18164 466.70703 C 230.37975 465.87997 226.10795 465.4668 220.36914 465.4668 L 210.0918 465.4668 z M 324.22461 465.4668 L 324.22461 503.26758 L 333.4668 503.26758 L 333.4668 477.3418 L 347.21289 503.26758 L 358.10156 503.26758 L 358.10156 465.4668 L 348.85938 465.4668 L 348.85938 491.39258 L 335.11133 465.4668 L 324.22461 465.4668 z M 403.92773 465.4668 L 403.92773 503.26758 L 430.78906 503.26758 L 430.78906 495.90039 L 413.67578 495.90039 L 413.67578 487.24023 L 429.24609 487.24023 L 429.24609 479.87305 L 413.67578 479.87305 L 413.67578 472.83594 L 428.46094 472.83594 L 430.23242 472.83594 L 441.01953 472.83594 L 441.01953 503.26758 L 450.76562 503.26758 L 450.76562 472.83594 L 463.29883 472.83594 L 463.29883 465.4668 L 430.23242 465.4668 L 428.46094 465.4668 L 403.92773 465.4668 z M 476.46289 465.4668 L 476.46289 503.26758 L 486.21094 503.26758 L 486.21094 465.4668 L 476.46289 465.4668 z M 185.60938 472.53125 L 189.71094 472.53125 C 191.75328 472.53125 193.21214 472.90186 194.08984 473.64453 C 194.98442 474.3872 195.43164 475.62015 195.43164 477.3418 C 195.43164 479.08032 194.98442 480.32834 194.08984 481.08789 C 193.21214 481.84744 191.75328 482.22852 189.71094 482.22852 L 185.60938 482.22852 L 185.60938 472.53125 z M 219.83789 472.83594 L 223.33203 472.83594 C 227.33232 472.83594 230.37968 473.81354 232.47266 475.77148 C 234.56564 477.72943 235.61133 480.58297 235.61133 484.33008 C 235.61133 488.09406 234.55712 490.96267 232.44727 492.9375 C 230.35429 494.91233 227.31544 495.90039 223.33203 495.90039 L 219.83789 495.90039 L 219.83789 472.83594 z M 19.445312 519.29297 C 13.385801 519.29297 8.6242294 521.03077 5.1640625 524.50781 C 1.7207745 527.98486 0 532.78704 0 538.91406 C 0 545.02421 1.7207745 549.81788 5.1640625 553.29492 C 8.6242294 556.77197 13.385801 558.51172 19.445312 558.51172 C 25.521703 558.51172 30.281321 556.77197 33.724609 553.29492 C 37.167897 549.81788 38.888672 545.02421 38.888672 538.91406 C 38.888672 532.78704 37.167897 527.98486 33.724609 524.50781 C 30.281321 521.03077 25.521703 519.29297 19.445312 519.29297 z M 56.541016 519.29297 C 51.983723 519.29297 48.48915 520.30657 46.058594 522.33203 C 43.628038 524.35749 42.414063 527.25164 42.414062 531.01562 C 42.414062 534.02006 43.282962 536.40741 45.021484 538.17969 C 46.776886 539.95197 49.545307 541.2445 53.326172 542.05469 L 57.097656 542.89062 C 59.393182 543.39699 60.920139 543.96993 61.679688 544.61133 C 62.456115 545.25272 62.845703 546.16418 62.845703 547.3457 C 62.845703 548.66225 62.279321 549.67585 61.148438 550.38477 C 60.017554 551.09368 58.388455 551.44727 56.261719 551.44727 C 54.16874 551.44727 51.992236 551.12577 49.730469 550.48438 C 47.48558 549.8261 45.155865 548.85701 42.742188 547.57422 L 42.742188 555.80273 C 45.155865 556.69731 47.570698 557.3724 49.984375 557.82812 C 52.398052 558.28385 54.80242 558.51172 57.199219 558.51172 C 62.279756 558.51172 66.051311 557.49812 68.515625 555.47266 C 70.404365 553.91798 71.570496 551.74407 72.021484 548.95703 L 72.021484 557.77734 L 98.884766 557.77734 L 98.884766 550.41016 L 81.769531 550.41016 L 81.769531 519.97656 L 72.021484 519.97656 L 72.021484 543.66211 C 71.663685 541.67251 70.854965 540.05291 69.580078 538.81445 C 67.807798 537.09281 64.820024 535.80879 60.617188 534.96484 L 56.464844 534.12891 C 54.490017 533.72381 53.12283 533.24255 52.363281 532.68555 C 51.620611 532.11167 51.25 531.31937 51.25 530.30664 C 51.25 528.95633 51.805917 527.95976 52.919922 527.31836 C 54.033927 526.67696 55.756654 526.35742 58.085938 526.35742 C 59.841339 526.35742 61.706814 526.5938 63.681641 527.06641 C 65.656468 527.53901 67.681712 528.23963 69.757812 529.16797 L 69.757812 521.16602 C 67.411651 520.5415 65.141518 520.07726 62.947266 519.77344 C 60.753013 519.45274 58.617116 519.29297 56.541016 519.29297 z M 118.56445 519.29297 C 112.50494 519.29297 107.74532 521.03077 104.28516 524.50781 C 100.84187 527.98486 99.121094 532.78704 99.121094 538.91406 C 99.121094 545.02421 100.84187 549.81788 104.28516 553.29492 C 107.74532 556.77197 112.50494 558.51172 118.56445 558.51172 C 124.64084 558.51172 129.40242 556.77197 132.8457 553.29492 C 136.28899 549.81788 138.00977 545.02421 138.00977 538.91406 C 138.00977 532.78704 136.28899 527.98486 132.8457 524.50781 C 129.40242 521.03077 124.64084 519.29297 118.56445 519.29297 z M 173.32031 519.29297 C 167.2608 519.29297 162.50118 521.03077 159.04102 524.50781 C 155.59773 527.98486 153.87695 532.78704 153.87695 538.91406 C 153.87695 545.02421 155.59773 549.81788 159.04102 553.29492 C 162.50118 556.77197 167.2608 558.51172 173.32031 558.51172 C 179.3967 558.51172 184.15632 556.77197 187.59961 553.29492 C 191.0429 549.81788 192.76562 545.02421 192.76562 538.91406 C 192.76562 532.78704 191.0429 527.98486 187.59961 524.50781 C 184.15632 521.03077 179.3967 519.29297 173.32031 519.29297 z M 216.16406 519.29297 C 209.64882 519.29297 204.51859 521.03928 200.77148 524.5332 C 197.02438 528.02713 195.15039 532.82079 195.15039 538.91406 C 195.15039 544.93982 196.99033 549.71646 200.66992 553.24414 C 204.34951 556.75494 209.337 558.51172 215.63281 558.51172 C 218.41782 558.51172 221.11815 558.21576 223.73438 557.625 C 226.3506 557.03424 228.87413 556.14832 231.30469 554.9668 L 231.30469 536.78711 L 216.11328 536.78711 L 216.11328 543.32031 L 222.06445 543.32031 L 222.06445 550.66211 C 221.37242 550.93217 220.58669 551.1345 219.70898 551.26953 C 218.84816 551.38768 217.91117 551.44727 216.89844 551.44727 C 213.16821 551.44727 210.29109 550.35901 208.26562 548.18164 C 206.24016 546.00427 205.22656 542.91435 205.22656 538.91406 C 205.22656 534.88001 206.27421 531.78354 208.36719 529.62305 C 210.47705 527.44567 213.47333 526.35742 217.35547 526.35742 C 219.44845 526.35742 221.53132 526.65143 223.60742 527.24219 C 225.7004 527.83295 227.80225 528.72934 229.91211 529.92773 L 229.91211 522.10352 C 227.86977 521.17518 225.69326 520.47456 223.38086 520.00195 C 221.08533 519.52934 218.67901 519.29297 216.16406 519.29297 z M 394.88867 519.29297 C 390.33138 519.29297 386.83681 520.30657 384.40625 522.33203 C 381.97569 524.35749 380.76172 527.25164 380.76172 531.01562 C 380.76172 534.02006 381.63062 536.40741 383.36914 538.17969 C 385.12454 539.95197 387.89296 541.2445 391.67383 542.05469 L 395.44531 542.89062 C 397.74084 543.39699 399.26779 543.96993 400.02734 544.61133 C 400.80377 545.25272 401.19336 546.16418 401.19336 547.3457 C 401.19336 548.66225 400.62698 549.67585 399.49609 550.38477 C 398.36521 551.09368 396.73611 551.44727 394.60938 551.44727 C 392.5164 551.44727 390.33989 551.12577 388.07812 550.48438 C 385.83324 549.8261 383.50352 548.85701 381.08984 547.57422 L 381.08984 555.80273 C 383.50352 556.69731 385.91835 557.3724 388.33203 557.82812 C 390.74571 558.28385 393.15008 558.51172 395.54688 558.51172 C 400.62741 558.51172 404.39897 557.49812 406.86328 555.47266 C 408.73103 553.93526 409.89565 551.79525 410.35742 549.05273 L 410.35742 557.77734 L 420.10547 557.77734 L 420.10547 541.75 L 434.48633 541.75 L 434.48633 557.77734 L 444.23438 557.77734 L 444.23438 519.97656 L 434.48633 519.97656 L 434.48633 534.38281 L 420.10547 534.38281 L 420.10547 519.97656 L 410.35742 519.97656 L 410.35742 543.60352 C 409.99413 541.6412 409.1899 540.04055 407.92773 538.81445 C 406.15545 537.09281 403.16768 535.80879 398.96484 534.96484 L 394.8125 534.12891 C 392.83767 533.72381 391.47049 533.24255 390.71094 532.68555 C 389.96827 532.11167 389.59766 531.31937 389.59766 530.30664 C 389.59766 528.95633 390.15357 527.95976 391.26758 527.31836 C 392.38158 526.67696 394.10431 526.35742 396.43359 526.35742 C 398.189 526.35742 400.05447 526.5938 402.0293 527.06641 C 404.00412 527.53901 406.02937 528.23963 408.10547 529.16797 L 408.10547 521.16602 C 405.75931 520.5415 403.48917 520.07726 401.29492 519.77344 C 399.10067 519.45274 396.96477 519.29297 394.88867 519.29297 z M 502.3125 519.29297 C 497.75521 519.29297 494.26259 520.30657 491.83203 522.33203 C 489.40148 524.35749 488.18555 527.25164 488.18555 531.01562 C 488.18555 534.02006 489.05445 536.40741 490.79297 538.17969 C 492.54837 539.95197 495.31679 541.2445 499.09766 542.05469 L 502.86914 542.89062 C 505.16467 543.39699 506.69358 543.96993 507.45312 544.61133 C 508.22955 545.25272 508.61719 546.16418 508.61719 547.3457 C 508.61719 548.66225 508.05276 549.67585 506.92188 550.38477 C 505.79099 551.09368 504.16189 551.44727 502.03516 551.44727 C 499.94218 551.44727 497.76372 551.12577 495.50195 550.48438 C 493.25706 549.8261 490.92735 548.85701 488.51367 547.57422 L 488.51367 555.80273 C 490.92735 556.69731 493.34218 557.3724 495.75586 557.82812 C 498.16954 558.28385 500.5739 558.51172 502.9707 558.51172 C 508.05124 558.51172 511.82475 557.49812 514.28906 555.47266 C 516.77026 553.43031 518.00977 550.32533 518.00977 546.15625 C 518.00977 542.98302 517.12384 540.5361 515.35156 538.81445 C 513.57928 537.09281 510.59151 535.80879 506.38867 534.96484 L 502.23633 534.12891 C 500.2615 533.72381 498.89431 533.24255 498.13477 532.68555 C 497.3921 532.11167 497.02148 531.31937 497.02148 530.30664 C 497.02148 528.95633 497.57935 527.95976 498.69336 527.31836 C 499.80736 526.67696 501.52814 526.35742 503.85742 526.35742 C 505.61282 526.35742 507.4783 526.5938 509.45312 527.06641 C 511.42795 527.53901 513.4532 528.23963 515.5293 529.16797 L 515.5293 521.16602 C 513.18313 520.5415 510.913 520.07726 508.71875 519.77344 C 506.5245 519.45274 504.3886 519.29297 502.3125 519.29297 z M 257.81641 519.97656 L 243.81445 557.77734 L 253.61328 557.77734 L 256.01758 550.89062 L 271.25977 550.89062 L 273.63867 557.77734 L 283.4375 557.77734 L 269.4375 519.97656 L 257.81641 519.97656 z M 284.0957 519.97656 L 284.0957 557.77734 L 293.84375 557.77734 L 293.84375 542.89062 L 308.88281 557.77734 L 318.52734 557.77734 L 321.08594 557.77734 L 345.39062 557.77734 L 345.39062 550.41016 L 328.27539 550.41016 L 328.27539 541.75 L 343.8457 541.75 L 343.8457 534.38281 L 328.27539 534.38281 L 328.27539 527.34375 L 344.83398 527.34375 L 344.83398 519.97656 L 319.21289 519.97656 L 318.52734 519.97656 L 307.89453 519.97656 L 293.84375 533.77539 L 293.84375 519.97656 L 284.0957 519.97656 z M 347.56836 519.97656 L 347.56836 557.77734 L 357.31641 557.77734 L 357.31641 543.47266 L 360.07617 543.47266 C 361.66278 543.47266 362.92783 543.81773 363.87305 544.50977 C 364.83514 545.2018 365.78065 546.49433 366.70898 548.38477 L 371.31641 557.77734 L 381.69727 557.77734 L 376.40625 547.04102 C 375.326 544.86364 374.25477 543.24501 373.19141 542.18164 C 372.14492 541.10139 370.95452 540.40929 369.62109 540.10547 C 372.05165 539.34592 373.86605 538.16404 375.06445 536.56055 C 376.27973 534.95705 376.88672 532.90627 376.88672 530.4082 C 376.88672 526.79613 375.72186 524.15343 373.39258 522.48242 C 371.08017 520.81141 367.43434 519.97656 362.45508 519.97656 L 347.56836 519.97656 z M 450.03125 519.97656 L 450.03125 542.63672 C 450.03125 547.98732 451.3729 551.96971 454.05664 554.58594 C 456.74038 557.20216 460.82492 558.51172 466.31055 558.51172 C 471.81306 558.51172 475.9061 557.20216 478.58984 554.58594 C 481.27358 551.96971 482.61523 547.98732 482.61523 542.63672 L 482.61523 519.97656 L 472.86719 519.97656 L 472.86719 542.63672 C 472.86719 545.75931 472.35383 547.99539 471.32422 549.3457 C 470.31149 550.67913 468.63983 551.3457 466.31055 551.3457 C 463.99814 551.3457 462.32649 550.67913 461.29688 549.3457 C 460.28414 547.99539 459.7793 545.75931 459.7793 542.63672 L 459.7793 519.97656 L 450.03125 519.97656 z M 318.52734 520.65039 L 318.52734 555.24219 L 301.00781 537.87695 L 318.52734 520.65039 z M 19.445312 526.35742 C 22.432871 526.35742 24.74361 527.45419 26.380859 529.64844 C 28.018109 531.84269 28.837891 534.93065 28.837891 538.91406 C 28.837891 542.8806 28.018109 545.962 26.380859 548.15625 C 24.74361 550.3505 22.432871 551.44727 19.445312 551.44727 C 16.474633 551.44727 14.170453 550.3505 12.533203 548.15625 C 10.895953 545.962 10.076172 542.8806 10.076172 538.91406 C 10.076172 534.93065 10.895953 531.84269 12.533203 529.64844 C 14.170453 527.45419 16.474633 526.35742 19.445312 526.35742 z M 118.56445 526.35742 C 121.55201 526.35742 123.8647 527.45419 125.50195 529.64844 C 127.1392 531.84269 127.95898 534.93065 127.95898 538.91406 C 127.95898 542.8806 127.1392 545.962 125.50195 548.15625 C 123.8647 550.3505 121.55201 551.44727 118.56445 551.44727 C 115.59377 551.44727 113.29155 550.3505 111.6543 548.15625 C 110.01705 545.962 109.19727 542.8806 109.19727 538.91406 C 109.19727 534.93065 110.01705 531.84269 111.6543 529.64844 C 113.29155 527.45419 115.59377 526.35742 118.56445 526.35742 z M 173.32031 526.35742 C 176.30787 526.35742 178.62056 527.45419 180.25781 529.64844 C 181.89506 531.84269 182.71484 534.93065 182.71484 538.91406 C 182.71484 542.8806 181.89506 545.962 180.25781 548.15625 C 178.62056 550.3505 176.30787 551.44727 173.32031 551.44727 C 170.34963 551.44727 168.04545 550.3505 166.4082 548.15625 C 164.77095 545.962 163.95312 542.8806 163.95312 538.91406 C 163.95312 534.93065 164.77095 531.84269 166.4082 529.64844 C 168.04545 527.45419 170.34963 526.35742 173.32031 526.35742 z M 357.31641 527.04102 L 361.41797 527.04102 C 363.46031 527.04102 364.91917 527.41163 365.79688 528.1543 C 366.69145 528.89697 367.13867 530.12992 367.13867 531.85156 C 367.13867 533.59009 366.69145 534.83811 365.79688 535.59766 C 364.91917 536.35721 363.46031 536.73828 361.41797 536.73828 L 357.31641 536.73828 L 357.31641 527.04102 z M 263.63867 528.83789 L 268.80273 543.87695 L 258.44922 543.87695 L 263.63867 528.83789 z "
           transform="matrix(0.75000002,0,0,-0.75000002,30.77905,430.8019)"
           id="text22" /></g><g
         id="g4525"
         transform="translate(125.87645)"><path
           inkscape:connector-curvature="0"
           id="path14"
           style="fill:none;stroke:#54c5b0;stroke-width:252.77799988;stroke-linecap:butt;stroke-linejoin:miter;stroke-miterlimit:10;stroke-dasharray:none;stroke-opacity:1"
           d="m 1429.67,1202.05 c -90.93,0 -202.56,64.46 -248.02,143.2 L 486.871,2548.66 c -45.469,78.74 -45.469,207.64 0,286.39 l 694.779,1203.38 c 45.46,78.75 157.09,143.2 248.02,143.2 h 1389.57 c 90.94,0 202.56,-64.45 248.03,-143.2 l 694.78,-1203.38 c 45.45,-78.75 45.45,-207.65 0,-286.39 L 3067.27,1345.25 c -45.47,-78.74 -157.09,-143.2 -248.03,-143.2 z" /><path
           inkscape:connector-curvature="0"
           id="path24"
           style="fill:#231f20;fill-opacity:1;fill-rule:nonzero;stroke:none"
           d="m 1723.7,2514.61 191.09,532.18 h -383.96 z m 498.25,739.35 -498.25,-1301.87 -500.02,1301.87 h 998.27" /><path
           inkscape:connector-curvature="0"
           id="path26"
           style="fill:#231f20;fill-opacity:1;fill-rule:nonzero;stroke:none"
           d="m 3025.24,3062.87 h -262.5 v -1059 h -207.17 v 1059 h -262.52 v 191.09 h 732.19 v -191.09" /></g></g></g></svg>