<?xml version="1.0" encoding="utf-8"?>
<!-- Generated by IcoMoon.io -->
<!DOCTYPE svg PUBLIC "-//W3C//DTD SVG 1.1//EN" "http://www.w3.org/Graphics/SVG/1.1/DTD/svg11.dtd">
<svg version="1.1" xmlns="http://www.w3.org/2000/svg" xmlns:xlink="http://www.w3.org/1999/xlink" width="32" height="32" viewBox="0 0 32 32">
<path fill="rgb(0, 0, 0)" d="M0 18.496v-4.992l4.8-0.512q0.448-1.44 1.216-2.816l-3.072-3.744 3.488-3.488 3.744 3.040q1.312-0.736 2.816-1.184l0.512-4.8h4.992l0.512 4.8q1.44 0.448 2.816 1.184l3.744-3.040 3.488 3.488-3.072 3.744q0.768 1.376 1.216 2.816l4.8 0.512v4.992l-4.8 0.512q-0.448 1.504-1.216 2.816l3.072 3.744-3.488 3.488-3.744-3.072q-1.376 0.768-2.816 1.216l-0.512 4.8h-4.992l-0.512-4.8q-1.504-0.448-2.816-1.216l-3.744 3.072-3.488-3.488 3.072-3.744q-0.768-1.312-1.216-2.816zM11.36 16q0 1.92 1.344 3.264t3.296 1.344 3.296-1.344 1.344-3.264-1.344-3.296-3.296-1.344-3.296 1.344-1.344 3.296z"></path>
</svg>
