<?xml version="1.0" encoding="utf-8"?>
<!-- Generated by IcoMoon.io -->
<!DOCTYPE svg PUBLIC "-//W3C//DTD SVG 1.1//EN" "http://www.w3.org/Graphics/SVG/1.1/DTD/svg11.dtd">
<svg version="1.1" xmlns="http://www.w3.org/2000/svg" xmlns:xlink="http://www.w3.org/1999/xlink" width="33" height="32" viewBox="0 0 33 32">
<path fill="rgb(0, 0, 0)" d="M17.088 32.032c-3.904 0-7.488-1.44-10.272-3.808l-6.816 0.928 2.624-6.496c-0.896-2.016-1.408-4.256-1.408-6.624 0-8.864 7.104-16.032 15.872-16.032 8.8 0 15.904 7.168 15.904 16.032 0 8.832-7.104 16-15.904 16zM25.76 15.968v-0.032c0-4.64-3.232-7.936-8.864-7.936h-6.080v16.032h5.984c5.664 0 8.96-3.424 8.96-8.064v0zM16.96 20.096h-1.76v-8.16h1.76c2.624 0 4.352 1.504 4.352 4.064v0.032c0 2.592-1.728 4.064-4.352 4.064z"></path>
</svg>
