<?xml version="1.0" encoding="utf-8"?>
<!-- Generated by IcoMoon.io -->
<!DOCTYPE svg PUBLIC "-//W3C//DTD SVG 1.1//EN" "http://www.w3.org/Graphics/SVG/1.1/DTD/svg11.dtd">
<svg version="1.1" xmlns="http://www.w3.org/2000/svg" xmlns:xlink="http://www.w3.org/1999/xlink" width="30" height="32" viewBox="0 0 30 32">
<path fill="rgb(0, 0, 0)" d="M0 24.512v-2.336q0-1.056 0.768-1.792t1.824-0.768 1.792 0.768 0.768 1.792v2.336q0 0.544 0.384 0.928t0.96 0.416h16.992q0.576 0 0.96-0.416t0.384-0.928v-2.336q0-1.056 0.768-1.792t1.792-0.768 1.824 0.768 0.768 1.792v2.336q0 2.688-1.888 4.576t-4.608 1.92h-16.992q-2.688 0-4.608-1.92t-1.888-4.576zM4.96 13.024q0-1.056 0.768-1.824 0.736-0.736 1.792-0.736t1.824 0.736l3.36 3.392v-11.008q0-1.056 0.768-1.824t1.792-0.736 1.824 0.736 0.768 1.824v11.008l3.52-3.52q0.768-0.768 1.824-0.768t1.792 0.768q0.768 0.736 0.768 1.792t-0.768 1.824l-7.904 7.904q-0.768 0.8-1.824 0.8-1.024 0-1.792-0.8l-7.744-7.744q-0.768-0.768-0.768-1.824z"></path>
</svg>
