<?xml version="1.0" encoding="utf-8"?>
<!-- Generated by IcoMoon.io -->
<!DOCTYPE svg PUBLIC "-//W3C//DTD SVG 1.1//EN" "http://www.w3.org/Graphics/SVG/1.1/DTD/svg11.dtd">
<svg version="1.1" xmlns="http://www.w3.org/2000/svg" xmlns:xlink="http://www.w3.org/1999/xlink" width="32" height="32" viewBox="0 0 32 32">
<path fill="rgb(0, 0, 0)" d="M0 16.768q0.192-1.568 2.048-3.52 2.528-2.56 5.632-4.096 4.128-1.952 8.32-1.952 0.928 0 1.888 0.064l2.368-4.128q0.32-0.512 0.736-0.576 0.128 0 0.256 0.064l1.632 1.024q0.544 0.224 0.064 1.056l-1.824 3.264-1.504 2.496-1.312 2.304-4.608 8-1.312 2.304-1.504 2.56-1.824 3.2q-0.48 0.8-0.992 0.48l-1.696-0.992q-0.48-0.256 0-1.056l1.568-2.752-0.256-0.128q-3.296-1.696-5.632-4.128-2.048-2.304-2.048-3.488zM8.448 16.768q0 2.368 1.504 4.256l1.536-2.688q-0.288-0.768-0.288-1.568 0-1.632 1.088-2.912t2.72-1.6l1.568-2.688h-0.576q-3.136 0-5.344 2.112t-2.208 5.088zM14.112 26.208l1.312-2.272h0.576q3.136 0 5.344-2.080t2.208-5.088q0-2.368-1.504-4.256l2.016-3.488q0.064 0.064 0.128 0.096t0.128 0.032q3.296 1.664 5.632 4.128 2.048 2.304 2.048 3.488-0.192 1.568-2.048 3.488-2.528 2.56-5.632 4.128-4.128 1.952-8.32 1.952-0.8 0-1.888-0.128zM16.992 21.248l3.52-6.048q0.288 0.8 0.288 1.568 0 1.632-1.088 2.88t-2.72 1.6z"></path>
</svg>
