<?xml version="1.0" encoding="utf-8"?>
<!-- Generated by IcoMoon.io -->
<!DOCTYPE svg PUBLIC "-//W3C//DTD SVG 1.1//EN" "http://www.w3.org/Graphics/SVG/1.1/DTD/svg11.dtd">
<svg version="1.1" xmlns="http://www.w3.org/2000/svg" xmlns:xlink="http://www.w3.org/1999/xlink" width="32" height="32" viewBox="0 0 32 32">
<path fill="rgb(0, 0, 0)" d="M31.616 17.408q0.96 2.624-0.32 5.632t-4.288 5.12q-0.32 0-0.384-0.064t-0.512-0.608-0.512-0.608q-0.064-0.192 0.064-0.32 2.752-1.92 3.744-4.864t-0.352-4.736q-0.512 1.216-1.248 2.432t-1.888 2.56-2.752 2.080-3.392 0.48q-1.664-0.192-2.688-1.312t-1.024-2.976q0-2.688 1.92-4.736 1.6-1.6 3.648-2.112l-0.064-3.2q-4.48 0.768-4.672 0.768-0.192 0.064-0.32-0.128 0-0.064-0.16-0.928t-0.16-0.992q-0.064-0.064 0.032-0.128t0.224-0.064l4.992-0.896q0-3.52-0.064-3.648 0-0.256 0.256-0.256 1.472 0 1.664-0.064 0.32 0 0.32 0.256v3.328q5.056-0.704 5.248-0.704 0.256-0.128 0.32 0.192 0 0.064 0.128 0.736t0.128 0.8q0.128 0.32-0.128 0.384l-5.632 0.96v3.264h0.384q2.752 0 4.736 1.152t2.752 3.2zM19.776 22.528q0.896 0.192 1.984-0.192l-0.128-6.848q-1.088 0.384-1.92 1.28-1.408 1.408-1.408 3.456 0 2.112 1.472 2.304zM23.68 21.632q0.896-0.768 1.856-2.176t1.44-2.528 0.224-1.312q-1.152-0.576-3.072-0.576-0.064 0-0.192 0.032t-0.192 0.032zM9.344 9.408q0.32 0.896 1.696 5.28t2.656 8.352 1.28 4.032q0 0.128-0.128 0.128h-2.752q-0.192 0-0.192-0.128l-1.6-5.312h-5.632q-1.536 5.248-1.6 5.312 0 0.128-0.192 0.128h-2.752q-0.128 0-0.128-0.128 0.32-0.576 5.632-17.664 0.064-0.256 0.32-0.256h3.072q0.32 0 0.32 0.256zM5.184 19.52h4.608l-2.304-8.448z"></path>
</svg>
