<?xml version="1.0" encoding="utf-8"?>
<!-- Generated by IcoMoon.io -->
<!DOCTYPE svg PUBLIC "-//W3C//DTD SVG 1.1//EN" "http://www.w3.org/Graphics/SVG/1.1/DTD/svg11.dtd">
<svg version="1.1" xmlns="http://www.w3.org/2000/svg" xmlns:xlink="http://www.w3.org/1999/xlink" width="32" height="32" viewBox="0 0 32 32">
<path fill="rgb(0, 0, 0)" d="M4.576 23.424v3.424q0 0.224-0.16 0.416t-0.416 0.16h-3.424q-0.224 0-0.416-0.16t-0.16-0.416v-3.424q0-0.224 0.16-0.384t0.416-0.192h3.424q0.224 0 0.416 0.192t0.16 0.384zM4.576 16.576v3.424q0 0.224-0.16 0.416t-0.416 0.16h-3.424q-0.224 0-0.416-0.16t-0.16-0.416v-3.424q0-0.224 0.16-0.416t0.416-0.16h3.424q0.224 0 0.416 0.16t0.16 0.416zM4.576 9.728v3.424q0 0.224-0.16 0.384t-0.416 0.192h-3.424q-0.224 0-0.416-0.192t-0.16-0.384v-3.424q0-0.256 0.16-0.416t0.416-0.16h3.424q0.224 0 0.416 0.16t0.16 0.416zM32 23.424v3.424q0 0.224-0.16 0.416t-0.416 0.16h-24q-0.224 0-0.384-0.16t-0.192-0.416v-3.424q0-0.224 0.192-0.384t0.384-0.192h24q0.224 0 0.416 0.192t0.16 0.384zM4.576 2.848v3.424q0 0.256-0.16 0.416t-0.416 0.16h-3.424q-0.224 0-0.416-0.16t-0.16-0.416v-3.424q0-0.224 0.16-0.384t0.416-0.192h3.424q0.224 0 0.416 0.192t0.16 0.384zM32 16.576v3.424q0 0.224-0.16 0.416t-0.416 0.16h-24q-0.224 0-0.384-0.16t-0.192-0.416v-3.424q0-0.224 0.192-0.416t0.384-0.16h24q0.224 0 0.416 0.16t0.16 0.416zM32 9.728v3.424q0 0.224-0.16 0.384t-0.416 0.192h-24q-0.224 0-0.384-0.192t-0.192-0.384v-3.424q0-0.256 0.192-0.416t0.384-0.16h24q0.224 0 0.416 0.16t0.16 0.416zM32 2.848v3.424q0 0.256-0.16 0.416t-0.416 0.16h-24q-0.224 0-0.384-0.16t-0.192-0.416v-3.424q0-0.224 0.192-0.384t0.384-0.192h24q0.224 0 0.416 0.192t0.16 0.384z"></path>
</svg>
