<?xml version="1.0" encoding="utf-8"?>
<!-- Generated by IcoMoon.io -->
<!DOCTYPE svg PUBLIC "-//W3C//DTD SVG 1.1//EN" "http://www.w3.org/Graphics/SVG/1.1/DTD/svg11.dtd">
<svg version="1.1" xmlns="http://www.w3.org/2000/svg" xmlns:xlink="http://www.w3.org/1999/xlink" width="25" height="32" viewBox="0 0 25 32">
<path fill="rgb(0, 0, 0)" d="M25.152 22.144q0 0.48-0.192 1.248t-0.384 1.216q-0.352 0.896-2.176 1.92-1.664 0.896-3.296 0.896-0.512 0-0.96-0.064t-1.024-0.224-0.832-0.256-0.992-0.352-0.896-0.32q-1.728-0.64-3.104-1.504-2.304-1.408-4.736-3.84t-3.84-4.736q-0.864-1.376-1.472-3.104-0.064-0.16-0.32-0.896t-0.384-0.992-0.256-0.832-0.224-1.024-0.064-0.928q0-1.664 0.928-3.328 0.992-1.792 1.888-2.176 0.448-0.192 1.216-0.384t1.248-0.192q0.256 0 0.384 0.064 0.32 0.096 0.96 1.376 0.192 0.32 0.512 0.96t0.64 1.12 0.544 0.96q0.064 0.064 0.32 0.448t0.384 0.64 0.128 0.512q0 0.352-0.512 0.896t-1.12 0.96-1.088 0.96-0.512 0.8q0 0.16 0.096 0.416t0.128 0.352 0.256 0.448 0.224 0.32q1.344 2.464 3.104 4.224t4.192 3.104q0.032 0 0.32 0.192t0.448 0.256 0.352 0.16 0.416 0.064q0.32 0 0.8-0.48t0.96-1.12 0.992-1.12 0.896-0.512q0.224 0 0.48 0.128t0.64 0.384 0.448 0.32q0.448 0.256 0.96 0.544t1.12 0.64 0.992 0.544q1.248 0.608 1.344 0.928 0.064 0.128 0.064 0.384z"></path>
</svg>
