<?xml version="1.0" encoding="utf-8"?>
<!-- Generated by IcoMoon.io -->
<!DOCTYPE svg PUBLIC "-//W3C//DTD SVG 1.1//EN" "http://www.w3.org/Graphics/SVG/1.1/DTD/svg11.dtd">
<svg version="1.1" xmlns="http://www.w3.org/2000/svg" xmlns:xlink="http://www.w3.org/1999/xlink" width="33" height="32" viewBox="0 0 33 32">
<path fill="rgb(0, 0, 0)" d="M6.688 11.808q0-4.16 4.16-4.16t4.16 4.16-4.16 4.16-4.16-4.16zM23.328 14.336q1.312 0 2.464 1.952 1.664 2.976 2.528 8.032h-23.328l0.544-1.664q0.544-1.728 1.76-3.36t2.72-1.632q1.696 0 4.032 1.216 0.8 0.448 1.792 0.448 1.216 0 2.752-1.76 1.856-2.080 2.944-2.72 0.864-0.512 1.792-0.512zM0 5.984q0-1.376 0.96-2.336t2.368-0.992h26.688q1.344 0 2.336 0.992t0.96 2.336v20q0 1.408-0.96 2.368t-2.336 0.992h-26.688q-1.376 0-2.336-0.992t-0.992-2.368v-20zM30.016 25.984v-20h-26.688v20h26.688z"></path>
</svg>
