<?xml version="1.0" encoding="utf-8"?>
<!-- Generated by IcoMoon.io -->
<!DOCTYPE svg PUBLIC "-//W3C//DTD SVG 1.1//EN" "http://www.w3.org/Graphics/SVG/1.1/DTD/svg11.dtd">
<svg version="1.1" xmlns="http://www.w3.org/2000/svg" xmlns:xlink="http://www.w3.org/1999/xlink" width="30" height="32" viewBox="0 0 30 32">
<path fill="rgb(0, 0, 0)" d="M13.728 5.728v12.544q0 1.856-0.736 3.552t-1.952 2.912-2.912 1.984-3.552 0.704h-1.152q-0.448 0-0.8-0.32t-0.352-0.832v-2.272q0-0.48 0.352-0.8t0.8-0.352h1.152q1.888 0 3.232-1.344t1.344-3.232v-0.544q0-0.736-0.512-1.216t-1.216-0.512h-4q-1.408 0-2.432-0.992t-0.992-2.432v-6.848q0-1.44 0.992-2.432t2.432-1.024h6.848q1.44 0 2.432 1.024t1.024 2.432zM29.728 5.728v12.544q0 1.856-0.736 3.552t-1.952 2.912-2.912 1.984-3.552 0.704h-1.152q-0.448 0-0.8-0.32t-0.352-0.832v-2.272q0-0.48 0.352-0.8t0.8-0.352h1.152q1.888 0 3.232-1.344t1.344-3.232v-0.544q0-0.736-0.512-1.216t-1.216-0.512h-4q-1.408 0-2.432-0.992t-0.992-2.432v-6.848q0-1.44 0.992-2.432t2.432-1.024h6.848q1.44 0 2.432 1.024t1.024 2.432z"></path>
</svg>
