<?xml version="1.0" encoding="utf-8"?>
<!-- Generated by IcoMoon.io -->
<!DOCTYPE svg PUBLIC "-//W3C//DTD SVG 1.1//EN" "http://www.w3.org/Graphics/SVG/1.1/DTD/svg11.dtd">
<svg version="1.1" xmlns="http://www.w3.org/2000/svg" xmlns:xlink="http://www.w3.org/1999/xlink" width="27" height="32" viewBox="0 0 27 32">
<path fill="rgb(0, 0, 0)" d="M22.624 4.8l4.8-4.8v12.96h-12.96l4.896-4.896q-2.464-1.984-5.632-1.984-3.552 0-6.176 2.432t-2.944 5.952h-4.576q0.288-5.44 4.256-9.184t9.44-3.744q5.024 0 8.896 3.264zM13.728 25.92q3.552 0 6.176-2.432t2.912-5.952h4.576q-0.288 5.44-4.256 9.184t-9.408 3.744q-5.056 0-8.928-3.264l-4.8 4.8v-12.96h12.96l-4.896 4.896q2.496 1.984 5.664 1.984z"></path>
</svg>
