<?xml version="1.0" encoding="utf-8"?>
<!-- Generated by IcoMoon.io -->
<!DOCTYPE svg PUBLIC "-//W3C//DTD SVG 1.1//EN" "http://www.w3.org/Graphics/SVG/1.1/DTD/svg11.dtd">
<svg version="1.1" xmlns="http://www.w3.org/2000/svg" xmlns:xlink="http://www.w3.org/1999/xlink" width="32" height="32" viewBox="0 0 32 32">
<path fill="rgb(0, 0, 0)" d="M32 32.032h-6.176q0-5.248-2.048-10.048t-5.504-8.256-8.224-5.504-10.048-2.048v-6.144q6.496 0 12.416 2.528t10.208 6.848 6.848 10.208 2.528 12.416zM21.12 32.032h-6.144q0-6.208-4.384-10.592t-10.592-4.384v-6.144q5.728 0 10.592 2.816t7.712 7.712 2.816 10.592zM8 28.032q0 1.664-1.152 2.848t-2.848 1.152-2.816-1.152-1.184-2.848 1.184-2.848 2.816-1.152 2.848 1.152 1.152 2.848z"></path>
</svg>
