<?xml version="1.0" encoding="utf-8"?>
<!-- Generated by IcoMoon.io -->
<!DOCTYPE svg PUBLIC "-//W3C//DTD SVG 1.1//EN" "http://www.w3.org/Graphics/SVG/1.1/DTD/svg11.dtd">
<svg version="1.1" xmlns="http://www.w3.org/2000/svg" xmlns:xlink="http://www.w3.org/1999/xlink" width="29" height="32" viewBox="0 0 29 32">
<path fill="rgb(0, 0, 0)" d="M0.352 15.2q-0.736-2.784 0-5.536t2.784-4.8q1.536-1.536 3.52-2.368t4.096-0.8q2.080 0 4.064 0.8t3.52 2.368q1.664 1.664 2.464 3.808t0.672 4.384-1.152 4.224q0.896 0.256 1.568 0.928l5.568 5.536q1.12 1.152 1.12 2.72t-1.12 2.72q-1.12 1.12-2.72 1.12t-2.72-1.12l-5.536-5.568q-0.704-0.64-0.96-1.568-2.24 1.12-4.768 1.12-2.112 0-4.096-0.8t-3.52-2.336q-2.048-2.048-2.784-4.832zM3.584 12.448q0 2.976 2.080 5.056 2.112 2.080 5.088 2.080 2.944 0 5.024-2.080t2.112-5.056-2.112-5.056q-2.112-2.112-5.024-2.112-2.944 0-5.088 2.112-2.080 2.080-2.080 5.056z"></path>
</svg>
