<?xml version="1.0" encoding="utf-8"?>
<!-- Generated by IcoMoon.io -->
<!DOCTYPE svg PUBLIC "-//W3C//DTD SVG 1.1//EN" "http://www.w3.org/Graphics/SVG/1.1/DTD/svg11.dtd">
<svg version="1.1" xmlns="http://www.w3.org/2000/svg" xmlns:xlink="http://www.w3.org/1999/xlink" width="32" height="32" viewBox="0 0 32 32">
<path fill="rgb(0, 0, 0)" d="M0 16q0.192-1.568 2.048-3.52 2.528-2.56 5.632-4.128 4.128-1.92 8.32-1.92 4.384 0.064 8.32 1.92 3.296 1.696 5.632 4.128 2.048 2.336 2.048 3.52-0.192 1.568-2.048 3.488-2.528 2.56-5.632 4.128-4.128 1.952-8.32 1.952-4.384-0.064-8.32-1.952-3.296-1.696-5.632-4.128-2.048-2.304-2.048-3.488zM8.448 16q0 3.008 2.208 5.088t5.344 2.080 5.344-2.080 2.208-5.088-2.208-5.088-5.344-2.112-5.344 2.112-2.208 5.088zM11.2 15.968q0-1.92 1.408-3.264t3.392-1.344 3.392 1.344 1.408 3.264-1.408 3.264-3.392 1.376-3.392-1.376-1.408-3.264z"></path>
</svg>
