<?xml version="1.0" encoding="utf-8"?>
<!-- Generated by IcoMoon.io -->
<!DOCTYPE svg PUBLIC "-//W3C//DTD SVG 1.1//EN" "http://www.w3.org/Graphics/SVG/1.1/DTD/svg11.dtd">
<svg version="1.1" xmlns="http://www.w3.org/2000/svg" xmlns:xlink="http://www.w3.org/1999/xlink" width="34" height="32" viewBox="0 0 34 32">
<path fill="rgb(0, 0, 0)" d="M8 8q0-0.96-0.672-1.632t-1.6-0.64-1.632 0.64-0.672 1.632 0.672 1.6 1.632 0.672 1.6-0.672 0.672-1.6zM27.040 18.272q0 0.96-0.64 1.632l-8.768 8.768q-0.704 0.672-1.632 0.672-0.96 0-1.6-0.672l-12.768-12.768q-0.672-0.672-1.152-1.824t-0.48-2.080v-7.424q0-0.928 0.672-1.6t1.6-0.704h7.456q0.928 0 2.080 0.48t1.824 1.152l12.768 12.768q0.64 0.672 0.64 1.6zM33.92 18.272q0 0.96-0.672 1.632l-8.768 8.768q-0.704 0.672-1.632 0.672-0.64 0-1.056-0.256t-0.928-0.8l8.384-8.384q0.672-0.672 0.672-1.632 0-0.928-0.672-1.6l-12.768-12.768q-0.672-0.672-1.824-1.152t-2.080-0.48h4q0.928 0 2.080 0.48t1.824 1.152l12.768 12.768q0.672 0.672 0.672 1.6z"></path>
</svg>
