<?xml version="1.0" encoding="utf-8"?>
<!-- Generated by IcoMoon.io -->
<!DOCTYPE svg PUBLIC "-//W3C//DTD SVG 1.1//EN" "http://www.w3.org/Graphics/SVG/1.1/DTD/svg11.dtd">
<svg version="1.1" xmlns="http://www.w3.org/2000/svg" xmlns:xlink="http://www.w3.org/1999/xlink" width="39" height="32" viewBox="0 0 39 32">
<path fill="rgb(0, 0, 0)" d="M0 28.384q0.96 0.096 1.92 0.096 5.632 0 10.048-3.456-2.624-0.032-4.704-1.6t-2.848-4q0.64 0.128 1.504 0.128 1.12 0 2.144-0.288-2.816-0.544-4.64-2.784t-1.856-5.12v-0.096q1.696 0.96 3.68 0.992-1.664-1.088-2.624-2.88t-0.992-3.84q0-2.176 1.12-4.064 3.008 3.744 7.36 5.952t9.28 2.496q-0.224-1.056-0.224-1.856 0-3.328 2.368-5.696t5.728-2.368q3.488 0 5.888 2.56 2.784-0.576 5.12-1.984-0.896 2.912-3.52 4.48 2.336-0.288 4.608-1.28-1.536 2.4-4 4.192v1.056q0 3.232-0.928 6.464t-2.88 6.208-4.64 5.28-6.432 3.68-8.096 1.344q-6.688 0-12.384-3.616z"></path>
</svg>
