<?xml version="1.0" encoding="utf-8"?>
<!-- Generated by IcoMoon.io -->
<!DOCTYPE svg PUBLIC "-//W3C//DTD SVG 1.1//EN" "http://www.w3.org/Graphics/SVG/1.1/DTD/svg11.dtd">
<svg version="1.1" xmlns="http://www.w3.org/2000/svg" xmlns:xlink="http://www.w3.org/1999/xlink" width="160" height="32" viewBox="0 0 160 32">
<path fill="rgb(0, 0, 0)" d="M9.248 26.24c0 0 0 0 0 0h-4.128v-26.24h-5.12v26.592c0 4.192 0.288 5.408 3.488 5.408h7.392c3.2 0 3.488-1.216 3.488-5.408v-26.592h-5.12v26.24zM85.792 13.44h-4.8v-7.712h4.8v7.712zM87.552 18.336c3.040 0 3.072-1.568 3.072-4.896v-7.68c0-4.672-0.352-5.76-3.072-5.76h-11.616v32h5.056v-12.8l5.952 12.8h5.504l-6.336-13.664h1.44zM160 10.656v-4.896c0-4.096-0.224-5.76-3.008-5.76h-8.576c-3.040 0-3.008 2.208-3.008 5.536v7.424c0 2.496 1.632 3.232 3.488 4 2.016 0.8 4.032 1.632 6.048 2.464v6.816h-4.416v-4.896h-5.12v4.896c0 3.872 0 5.76 2.912 5.76h8.736c3.008 0.032 2.944-2.4 2.944-5.76v-8.256c0-2.624-2.112-3.232-4-4-1.824-0.736-3.648-1.504-5.472-2.24v-5.984h4.352v4.896h5.12zM104.512 0h-8.448c-2.976 0-2.944 2.208-2.944 5.536v7.424c0 2.496 1.6 3.232 3.456 4 1.952 0.8 3.936 1.632 5.92 2.464v6.816h-4.352v-4.896h-5.024v4.896c0 3.872 0 5.76 2.88 5.76h8.576c2.944 0 2.88-2.4 2.88-5.76v-8.256c0-2.624-2.080-3.232-3.936-4-1.792-0.768-3.584-1.504-5.376-2.24v-5.984h4.288v4.896h5.024v-4.896c0-4.096-0.224-5.76-2.944-5.76zM130.112 0h-14.016v5.76h4.608v26.24h5.088v-26.24h4.288v-5.76h0.032zM109.792 32h5.12v-32h-5.12v32zM65.472 17.6h5.248v-4.896h-5.248v-6.944h8.352v-5.76h-13.472v32h13.856v-5.76h-8.736v-8.64zM134.816 20.544l1.504-10.976 1.536 10.976h-3.040zM133.024 0l-5.184 32h5.12l0.928-5.696h4.896l0.928 5.696h5.12l-5.184-32h-6.624zM50.528 22.4l-3.392-22.4h-5.12l5.184 32h6.656l5.152-32h-5.12l-3.36 22.4zM27.36 16.608l-4.416-16.608h-5.888v32h5.12v-16.448l4.736 16.448h5.568v-32h-5.12v16.608zM35.552 32h5.12v-32h-5.12v32z"></path>
</svg>
