<?xml version="1.0" encoding="utf-8"?>
<!-- Generated by IcoMoon.io -->
<!DOCTYPE svg PUBLIC "-//W3C//DTD SVG 1.1//EN" "http://www.w3.org/Graphics/SVG/1.1/DTD/svg11.dtd">
<svg version="1.1" xmlns="http://www.w3.org/2000/svg" xmlns:xlink="http://www.w3.org/1999/xlink" width="34" height="32" viewBox="0 0 34 32">
<path fill="rgb(0, 0, 0)" d="M34.24 30.016q0 0.672-0.064 2.016h-34.144q0-0.32 0-0.992t-0.032-1.024q0-0.96 0.032-1.184 0.384-1.568 2.048-2.72t3.584-1.696 4-1.504 3.104-2.080q0.544-0.704 0.544-1.216 0-0.704-0.352-2.336-0.128-0.672-0.32-1.184t-0.512-1.056-0.512-0.992q-0.48-1.12-1.056-4.224-0.192-1.216-0.192-2.4 0-3.36 1.728-5.376t5.024-2.016 5.056 2.016 1.696 5.376q0 0.992-0.224 2.4-0.448 2.848-1.024 4.224-0.192 0.448-0.48 0.992t-0.512 1.056-0.352 1.184q-0.352 1.632-0.352 2.336 0 0.576 0.544 1.216 0.992 1.152 3.104 2.080t4 1.504 3.552 1.696 2.048 2.72q0.064 0.256 0.064 1.184z"></path>
</svg>
