<?xml version="1.0" encoding="utf-8"?>
<!-- Generated by IcoMoon.io -->
<!DOCTYPE svg PUBLIC "-//W3C//DTD SVG 1.1//EN" "http://www.w3.org/Graphics/SVG/1.1/DTD/svg11.dtd">
<svg version="1.1" xmlns="http://www.w3.org/2000/svg" xmlns:xlink="http://www.w3.org/1999/xlink" width="38" height="32" viewBox="0 0 38 32">
<path fill="rgb(0, 0, 0)" d="M0 25.632q0.64-0.224 1.92-0.704t2.208-0.832 1.6-0.704q1.184-0.608 1.824-1.792t0.672-2.432q0-0.864-0.992-2.048-0.608-0.672-1.056-1.92-1.44-0.576-1.44-2.432 0-1.376 0.448-1.952-0.16-1.248-0.288-2.624-0.16-1.76 0.832-3.456t2.688-2.688 3.52-1.024q1.376 0 2.72 0.608t2.336 1.6 1.536 2.304 0.448 2.656q-0.128 1.76-0.256 2.624 0.448 0.608 0.448 1.952 0 1.856-1.44 2.432-0.48 1.312-1.024 1.92-1.024 1.184-1.024 2.048 0 1.248 0.64 2.432t1.856 1.792q0.928 0.48 2.944 1.216t3.616 1.376 2.112 1.216q0.576 0.544 0.896 1.504t0.32 1.632l0.032 0.672h-28.096v-5.376zM22.56 16.064q0-1.088 0.384-1.6-0.16-1.024-0.224-2.144-0.128-1.44 0.672-2.848t2.208-2.304 2.88-0.864 2.848 0.864 2.208 2.304 0.704 2.848q-0.064 1.12-0.256 2.144 0.384 0.512 0.384 1.6 0 1.536-1.152 1.984-0.384 1.056-0.864 1.6-0.288 0.32-0.416 0.512t-0.288 0.512-0.128 0.64q0 1.024 0.544 1.984t1.504 1.472q0.544 0.288 1.344 0.608t1.92 0.704 1.6 0.608v4.32h-8.128q0-0.128 0-0.352t-0.096-0.832-0.224-1.152-0.48-1.216-0.736-1.056q-0.736-0.8-1.696-1.408t-2.528-1.184q0.864-1.088 0.864-2.496 0-0.32-0.16-0.64t-0.256-0.512-0.384-0.512q-0.448-0.48-0.864-1.568-1.184-0.512-1.184-2.016z"></path>
</svg>
