<?xml version="1.0" encoding="utf-8"?>
<!-- Generated by IcoMoon.io -->
<!DOCTYPE svg PUBLIC "-//W3C//DTD SVG 1.1//EN" "http://www.w3.org/Graphics/SVG/1.1/DTD/svg11.dtd">
<svg version="1.1" xmlns="http://www.w3.org/2000/svg" xmlns:xlink="http://www.w3.org/1999/xlink" width="32" height="32" viewBox="0 0 32 32">
<path fill="rgb(0, 0, 0)" d="M6.176 0c-3.424 0-6.176 2.752-6.176 6.176v19.648c0 3.424 2.752 6.176 6.176 6.176h19.648c3.424 0 6.176-2.752 6.176-6.176v-19.648c0-3.424-2.752-6.176-6.176-6.176h-19.648zM22.72 6.304c0.096 0 0.192 0 0.288 0 2.368 0.064 3.456 1.6 3.328 4.576-0.096 2.208-1.664 5.248-4.672 9.12-3.104 4.032-5.728 6.048-7.904 6.048-1.312 0-2.464-1.216-3.392-3.68l-1.824-6.784c-0.704-2.464-1.44-3.68-2.208-3.68-0.192 0-0.768 0.352-1.792 1.088l-1.088-1.408c1.12-0.992 2.24-1.984 3.328-2.976 1.504-1.28 2.656-1.984 3.392-2.048 1.792-0.16 2.88 1.056 3.296 3.648 0.448 2.816 0.736 4.544 0.928 5.216 0.512 2.336 1.056 3.488 1.664 3.488 0.48 0 1.216-0.736 2.176-2.24s1.472-2.656 1.536-3.424c0.128-1.312-0.384-1.952-1.536-1.952-0.544 0-1.12 0.096-1.696 0.352 1.088-3.552 3.136-5.344 6.176-5.344z"></path>
</svg>
